<svg xmlns="http://www.w3.org/2000/svg" xmlns:xlink="http://www.w3.org/1999/xlink" viewBox="0 0 541.8 380.01"><defs><style>.cls-1{fill:url(#Dégradé_sans_nom_15);}.cls-2{fill:#0e9bd8;}.cls-3,.cls-8{fill:none;stroke:#fff;stroke-miterlimit:10;}.cls-4{fill:#fcbe38;}.cls-5{fill:#b72384;}.cls-16,.cls-18,.cls-24,.cls-27,.cls-30,.cls-6,.cls-7,.cls-9{fill:#fff;}.cls-6{fill-rule:evenodd;}.cls-8{stroke-width:2px;}.cls-9{font-size:3px;}.cls-16,.cls-18,.cls-24,.cls-27,.cls-30,.cls-34,.cls-40,.cls-9{font-family:NoirPro-Bold, Noir Pro;font-weight:700;}.cls-10{letter-spacing:-0.01em;}.cls-11{letter-spacing:-0.03em;}.cls-12{letter-spacing:-0.01em;}.cls-13{letter-spacing:-0.02em;}.cls-14{letter-spacing:0em;}.cls-15{letter-spacing:-0.03em;}.cls-16{font-size:4px;}.cls-17{letter-spacing:-0.03em;}.cls-18{font-size:2px;}.cls-19{letter-spacing:-0.06em;}.cls-20{letter-spacing:-0.08em;}.cls-21{letter-spacing:-0.01em;}.cls-22{fill:#ffed00;}.cls-23{fill:#f8f7f7;}.cls-24{font-size:8px;}.cls-25{letter-spacing:-0.01em;}.cls-26{letter-spacing:-0.01em;}.cls-27,.cls-34,.cls-40{font-size:6px;}.cls-28,.cls-40{letter-spacing:-0.01em;}.cls-29{letter-spacing:0em;}.cls-30{font-size:11px;}.cls-31{letter-spacing:-0.01em;}.cls-32{letter-spacing:0em;}.cls-33{letter-spacing:0.01em;}.cls-34,.cls-40{fill:#1d1d1b;}.cls-35{letter-spacing:-0.08em;}.cls-36{letter-spacing:-0.02em;}.cls-37{letter-spacing:-0.08em;}.cls-38{letter-spacing:0em;}.cls-39{letter-spacing:0.03em;}.cls-41{letter-spacing:-0.03em;}.cls-42{fill:#008d36;}.cls-43{letter-spacing:-0.06em;}</style><linearGradient id="Dégradé_sans_nom_15" x1="66.72" y1="207.62" x2="564.39" y2="207.62" gradientUnits="userSpaceOnUse"><stop offset="0" stop-color="#b72384"/><stop offset="1" stop-color="#0e9bd8"/></linearGradient></defs><title>Plan</title><g id="Fonds"><path id="Fond_carte" data-name="Fond carte" class="cls-1" d="M442.59,349.9c-.87,2.12-12.79,6.39-30.65,16.56a193.23,193.23,0,0,0-25.38,16.75c-9.81,7.45-15.65,15.15-20.68,13.22-2.41-.93-10.48-8.67-16.57-14.47a61.09,61.09,0,0,0-6.62-5.52c-6.76-4.43-16.53.38-23.15,2.74-6.06,2.15-20.82,1.48-50.33.13-21.28-1-31.93-1.45-34.86-3.09-15.77-8.78-11.36-23.8-32-48.6-7.79-9.34-15.39-15.4-23.44-22.13-8.43-7.06-17.87-13.24-36.58-25.8-5.76-3.87-10.43-7-17.06-11.28-18.66-12-19.34-11.46-27.65-17.62-13.1-9.73-11.77-11.39-20-15.56-5-2.54-9-3.67-10.37-7.36-1.65-4.49,1.67-9.8,5.25-14.43,11.67-15.11,21.15-16.55,37.4-30.3,13.53-11.45,20.7-22.07,25.32-19.8,1.73.85,1,2.43,6,12,6.67,13,8.42,11.93,10.47,18.61,2.88,9.39-.6,13.12,2.91,19.19,3.1,5.36,8.84,7.92,13.39,9.24a213.67,213.67,0,0,1,23.76-1.55c1.81,0,3.16-.07,4.87,0,5.46.33,10.81,1.68,24.27,4.49,18.78,3.92,32.69,7.11,45.93,5.24,8.73-1.24,22.38-5.34,37.65-20.27-7.31-5-11.54-11.86-10-17.09,1-3.31,5.36-5.38,14.12-9.38,9.91-4.52,19.16-8.63,22.53-5.23,1.68,1.69.24,3.68,2.34,6.23,2.34,2.85,7.1,4,11.14,2.6,3.43-1.19,7.2-4.5,6.95-7.86-.29-4-5.95-4.23-12.84-10.47-5.2-4.7-11.82-13.42-9.54-19.3.76-1.94,1.78-1.76,7-7,4.24-4.29,6.37-6.43,6.65-7.59,2.54-10.54-55.05-27.42-53.42-42.2.44-4,5.05-6.5,8.09-8.09,29.31-15.35,43.95-23.06,67.51-25.31,23.24-2.23,58.34-11.08,109.06-41.17q21.53,29.6,43.2,60.61,22.43,32.08,43.46,63.54c-3.78,2.14-7,4.92-7.3,8.39-.4,5,5.65,7.34,9.06,14.75a29.84,29.84,0,0,1,1.53,16.48c-2,10.8-11.62,15.12-39,34.4-15.35,10.8-12,9-17.66,12.7-24.63,15.84-31.28,12.53-49.56,24.78-17.51,11.73-13.45,16.12-32.87,28.27-14.81,9.25-23,11.87-31,16.31-16.7,9.28-23.45,10-26,13.88a8.09,8.09,0,0,0-.92,2.05c-1.78,5.53,1.7,10.47,7.45,19.9,8.19,13.44,9.11,16.51,12.57,16.88,1.55.17,2.25-.35,9.3-4.24,12-6.64,9.83-5.06,14.12-7.64,5.92-3.56,13.12-9.39,15.44-10" transform="translate(-22.59 -18.5)"/><g id="étang"><path id="étang_fond" data-name="étang fond" class="cls-2" d="M180.06,221.3c-.25,10.47,2.71,15.08,5.58,17.34,5.57,4.39,11.87.76,20.8,6.29a25.48,25.48,0,0,1,8.74,8.6c4.74,8,1.69,14.14,6,16.9,3.55,2.26,9.07.29,11.75-1.27,2.44-1.42,2.19-2.32,6.35-6,3.21-2.86,5.31-4.72,8.5-6,1.75-.72,6.85-2.79,11.87-.79,2.79,1.1,4.39,3.07,7.58,7,4.89,6,4.12,7.69,6.89,9.43,3.88,2.43,6.74,0,14.9.28s8.08,2.77,15.26,3.2c9.34.55,9.68-3.68,21.58-4.89,10.25-1,15.13,1.58,18.82-2.27,1.51-1.58,2.07-3.72,3.19-8,1.2-4.57,2.23-8.47.41-11.59-1.07-1.84-2.15-1.71-7.17-4.58a103,103,0,0,1-11.54-8c-.4-.29-4.77-3.58-8.37-6.77a97.49,97.49,0,0,1-16.83-19.82c-6.7,3.46-30.77,15.47-53.09,17.8a66.07,66.07,0,0,1-17.81-.14c-9.76-1.48-14.4-4.59-21.13-6.7S195,217.58,180.06,221.3Z" transform="translate(-22.59 -18.5)"/><path class="cls-3" d="M302.46,263.29a9.54,9.54,0,0,1,4.06-1.41c3.67-.36,5.58,1.86,9.65,2.51a15.13,15.13,0,0,0,6.89-.58" transform="translate(-22.59 -18.5)"/><path class="cls-3" d="M269.14,230.92a9.49,9.49,0,0,1,4.05-1.41c3.67-.36,5.58,1.86,9.66,2.51a15.09,15.09,0,0,0,6.88-.58" transform="translate(-22.59 -18.5)"/><path class="cls-3" d="M258.32,254a9.67,9.67,0,0,1,4.06-1.42c3.67-.35,5.57,1.86,9.65,2.52a15.14,15.14,0,0,0,6.89-.58" transform="translate(-22.59 -18.5)"/><path class="cls-3" d="M270.5,248.16a9.6,9.6,0,0,1,3.89-1.82c3.62-.72,5.74,1.29,9.86,1.53a15.16,15.16,0,0,0,6.8-1.26" transform="translate(-22.59 -18.5)"/><path class="cls-3" d="M272,264.19a9.4,9.4,0,0,1,3.89-1.82c3.62-.73,5.74,1.29,9.86,1.53a15.14,15.14,0,0,0,6.79-1.27" transform="translate(-22.59 -18.5)"/><path class="cls-3" d="M287.13,241a9.4,9.4,0,0,1,3.89-1.82c3.62-.73,5.74,1.29,9.86,1.53a15.16,15.16,0,0,0,6.79-1.27" transform="translate(-22.59 -18.5)"/><path class="cls-3" d="M289,226.08a9.67,9.67,0,0,1,4.06-1.42c3.67-.35,5.57,1.86,9.65,2.52a15.14,15.14,0,0,0,6.89-.58" transform="translate(-22.59 -18.5)"/><path class="cls-3" d="M291.73,256a9.3,9.3,0,0,1,4-1.42c3.67-.36,5.58,1.86,9.66,2.51a15.06,15.06,0,0,0,6.88-.57" transform="translate(-22.59 -18.5)"/><path class="cls-3" d="M304.08,247a9.54,9.54,0,0,1,4.06-1.41c3.67-.36,5.58,1.86,9.65,2.51a15.13,15.13,0,0,0,6.89-.58" transform="translate(-22.59 -18.5)"/><path class="cls-3" d="M321.1,259.89a9.67,9.67,0,0,1,4.06-1.42c3.67-.35,5.57,1.86,9.65,2.52a15.14,15.14,0,0,0,6.89-.58" transform="translate(-22.59 -18.5)"/><path class="cls-3" d="M291.73,269.1a9.44,9.44,0,0,1,4-1.41c3.67-.36,5.58,1.86,9.66,2.51a15.09,15.09,0,0,0,6.88-.58" transform="translate(-22.59 -18.5)"/><path class="cls-3" d="M187.82,227.44a9.67,9.67,0,0,1,4.06-1.42c3.67-.35,5.57,1.86,9.65,2.52a15.14,15.14,0,0,0,6.89-.58" transform="translate(-22.59 -18.5)"/><path class="cls-3" d="M197.72,238.58a9.54,9.54,0,0,1,4.06-1.41c3.67-.36,5.58,1.86,9.65,2.51a15.13,15.13,0,0,0,6.89-.58" transform="translate(-22.59 -18.5)"/><path class="cls-3" d="M216.2,244.4a9.54,9.54,0,0,1,4.06-1.41c3.67-.36,5.57,1.86,9.65,2.51a15.14,15.14,0,0,0,6.89-.58" transform="translate(-22.59 -18.5)"/><path class="cls-3" d="M327.2,252.64a9.35,9.35,0,0,1,4.05-1.42c3.67-.36,5.58,1.86,9.66,2.51a14.92,14.92,0,0,0,6.88-.57" transform="translate(-22.59 -18.5)"/><path class="cls-3" d="M228.16,250.51a9.4,9.4,0,0,1,4.06-1.42c3.67-.36,5.58,1.86,9.65,2.51a15.1,15.1,0,0,0,6.89-.57" transform="translate(-22.59 -18.5)"/><path class="cls-3" d="M240.45,237.06a9.53,9.53,0,0,1,3.89-1.82c3.62-.72,5.74,1.29,9.86,1.53a15.12,15.12,0,0,0,6.79-1.26" transform="translate(-22.59 -18.5)"/><path class="cls-3" d="M220.49,257.49a9.54,9.54,0,0,1,4.06-1.41c3.67-.36,5.57,1.86,9.65,2.51a15.14,15.14,0,0,0,6.89-.58" transform="translate(-22.59 -18.5)"/><path class="cls-3" d="M246.53,246.18a9.35,9.35,0,0,1,3.83-2c3.59-.85,5.77,1.09,9.9,1.18a14.92,14.92,0,0,0,6.75-1.5" transform="translate(-22.59 -18.5)"/><path class="cls-4" d="M368.06,384.83" transform="translate(-22.59 -18.5)"/><path class="cls-4" d="M73.73,280.85" transform="translate(-22.59 -18.5)"/></g><path id="contrôle_billets" data-name="contrôle billets" class="cls-2" d="M419.11,362.5l-3.45,1.88-2.11,1.17c-6.85-12.37-1.24-2.24-8.1-14.61l11.31-6.06q3.94,7.37,7.9,14.74" transform="translate(-22.59 -18.5)"/><path class="cls-5" d="M338,230.83a5.37,5.37,0,1,1-5.37-5.37,5.38,5.38,0,0,1,5.37,5.37" transform="translate(-22.59 -18.5)"/><path class="cls-6" d="M333.73,228.5h2a.28.28,0,0,1,.28.28v1.28a.28.28,0,0,1-.28.29h-.29v3a.28.28,0,0,1-.28.29h-5.12a.28.28,0,0,1-.28-.29v-3h-.29a.28.28,0,0,1-.28-.29v-1.28a.28.28,0,0,1,.28-.28m.14.43v1h2.78v-1Zm3.2,0v1h2.78v-1Zm-.42,1.42h-2.21v2.84h2.21Zm.42,2.84v-2.84H335v2.84Z" transform="translate(-22.59 -18.5)"/><path class="cls-5" d="M327.2,222a5.37,5.37,0,1,1-5.37-5.37A5.38,5.38,0,0,1,327.2,222" transform="translate(-22.59 -18.5)"/><path class="cls-6" d="M323,219.65h2a.29.29,0,0,1,.29.28v1.28a.29.29,0,0,1-.29.29h-.28v3a.29.29,0,0,1-.28.29h-5.12a.29.29,0,0,1-.29-.29v-3h-.28a.29.29,0,0,1-.29-.29v-1.28a.29.29,0,0,1,.29-.28m.14.42v1h2.77v-1Zm3.2,0v1h2.77v-1Zm-.43,1.43h-2.2v2.84h2.2Zm.43,2.84V221.5h2.2v2.84Z" transform="translate(-22.59 -18.5)"/><path class="cls-5" d="M322,180.88a5.38,5.38,0,1,0,5.33,5.42A5.39,5.39,0,0,0,322,180.88Z" transform="translate(-22.59 -18.5)"/><path class="cls-7" d="M325.23,184.06c-.11-.57-.71-.78-1.12-.86a.74.74,0,0,1,0,.26,1.06,1.06,0,0,1-.12.5c.23.06.44.15.46.24s0,.09,0,.11a1.36,1.36,0,0,1-.9.28h-1a1.41,1.41,0,0,1-.91-.28.1.1,0,0,1,0-.11c0-.1.23-.18.46-.24a1,1,0,0,1-.13-.5.78.78,0,0,1,0-.26c-.42.08-1,.29-1.12.86a.86.86,0,0,0,.18.74,1.75,1.75,0,0,0,1.05.5c-.1.28-.29.86-.44,1.35-.41,0-1.11,0-1.38,0a.52.52,0,0,0-.39.17,3.14,3.14,0,0,0-.37,1.94l-.69.36a.44.44,0,0,0-.19.6.44.44,0,0,0,.4.24.35.35,0,0,0,.2,0l3.17-1.65a1.28,1.28,0,0,0,.72-.66c.18-.43.6-1.77.75-2.27a1.9,1.9,0,0,0,1.18-.52A.86.86,0,0,0,325.23,184.06Zm-4.82,4.23a5.11,5.11,0,0,1,.09-.76l1.33,0Z" transform="translate(-22.59 -18.5)"/><circle class="cls-7" cx="300.44" cy="164.96" r="0.89"/><path class="cls-3" d="M215.26,233.64a9.54,9.54,0,0,1,4.05-1.41c3.68-.36,5.58,1.86,9.66,2.51a15.09,15.09,0,0,0,6.88-.58" transform="translate(-22.59 -18.5)"/></g><g id="Entrée"><path id="contrôle_billets-2" data-name="contrôle billets" class="cls-2" d="M381.09,360.92l-31.21,21.56-2-1.8-2.62-2.31a19.88,19.88,0,0,0-6-3.39l34.56-24.61Z" transform="translate(-22.59 -18.5)"/><line class="cls-8" x1="330.08" y1="299.79" x2="361.01" y2="344.57"/><line class="cls-8" x1="359.76" y1="344.27" x2="408.91" y2="317.97"/><text class="cls-9" transform="translate(324.55 357.22) rotate(-35.69)"><tspan class="cls-10">CO</tspan><tspan x="4.27" y="0">NT</tspan><tspan class="cls-11" x="8.3" y="0">R</tspan><tspan class="cls-10" x="10.22" y="0">Ô</tspan><tspan x="12.55" y="0">LE </tspan><tspan class="cls-12" x="16.63" y="0">D</tspan><tspan x="18.72" y="0">ES </tspan><tspan class="cls-10" x="23.14" y="0">B</tspan><tspan x="25.08" y="0">ILLETS</tspan><tspan class="cls-10" x="1.43" y="3.6">P</tspan><tspan class="cls-13" x="3.33" y="3.6">O</tspan><tspan x="5.63" y="3.6">SE </tspan><tspan class="cls-12" x="10.04" y="3.6">D</tspan><tspan x="12.13" y="3.6">ES </tspan><tspan class="cls-12" x="16.55" y="3.6">B</tspan><tspan class="cls-14" x="18.49" y="3.6">R</tspan><tspan class="cls-15" x="20.51" y="3.6">A</tspan><tspan class="cls-10" x="22.57" y="3.6">C</tspan><tspan x="24.52" y="3.6">ELETS</tspan></text><text class="cls-16" transform="translate(372.7 334.46) rotate(-28.34)">S<tspan class="cls-10" x="2.56" y="0">O</tspan><tspan class="cls-17" x="5.66" y="0">R</tspan><tspan x="8.22" y="0">TIE</tspan></text><polygon class="cls-7" points="386.68 327.47 384.99 324.29 388.6 324.4 386.68 327.47"/><path class="cls-7" d="M409.4,345.9l-.17-.32-.4-.75-.49-.92-.43-.8c-.06-.12-.13-.26-.2-.38h0l-.12.2.36,0,.86,0,1.05,0,.89,0,.44,0h0l-.11-.21-.19.3-.46.74-.56.88c-.15.26-.31.51-.47.76l-.24.38h0a.14.14,0,0,0,0,.19.13.13,0,0,0,.18,0l.19-.31c.16-.24.31-.49.46-.73l.56-.89.47-.76.24-.37h0a.14.14,0,0,0-.11-.21h-.36l-.86,0-1.05,0-.9,0h-.44a.14.14,0,0,0-.13.2l.17.32.41.76.48.91.43.8c.07.13.13.26.2.38h0a.14.14,0,0,0,.18.06A.14.14,0,0,0,409.4,345.9Z" transform="translate(-22.59 -18.5)"/><text class="cls-16" transform="translate(342.35 311.75) rotate(54.53)">S<tspan class="cls-10" x="2.56" y="0">O</tspan><tspan class="cls-17" x="5.66" y="0">R</tspan><tspan x="8.22" y="0">TIE</tspan></text><polygon class="cls-7" points="350.96 324.76 353.91 322.69 354.24 326.29 350.96 324.76"/><path class="cls-7" d="M373.64,343.38l.29-.21.7-.49.85-.6.74-.52.36-.25h0l-.21-.1,0,.36c0,.29.05.57.08.86s.06.69.1,1,.05.6.08.9c0,.14,0,.29,0,.43h0l.19-.14-.32-.15-.79-.36-.94-.44-.82-.38-.4-.19h0a.14.14,0,0,0-.18.07.13.13,0,0,0,.06.18l.33.15.78.37.95.44.82.37.39.19h0a.13.13,0,0,0,.19-.13l0-.36c0-.29-.05-.57-.08-.86s-.07-.69-.1-1-.05-.6-.08-.9c0-.14,0-.29,0-.43h0a.14.14,0,0,0-.22-.1l-.29.21-.7.49-.85.6-.74.52-.36.25h0a.14.14,0,0,0,0,.2A.15.15,0,0,0,373.64,343.38Z" transform="translate(-22.59 -18.5)"/><text class="cls-18" transform="matrix(0.47, 0.88, -0.88, 0.47, 388.9, 331.76)"><tspan class="cls-19">P</tspan><tspan x="1.17" y="0">AL</tspan><tspan class="cls-19" x="3.66" y="0">P</tspan><tspan class="cls-20" x="4.83" y="0">A</tspan><tspan x="6.11" y="0">T</tspan><tspan class="cls-21" x="7.3" y="0">IO</tspan><tspan x="9.44" y="0">NS</tspan></text></g><g id="Pictos"><path class="cls-22" d="M167.93-38.36" transform="translate(-22.59 -18.5)"/><path class="cls-22" d="M452.18-122.13" transform="translate(-22.59 -18.5)"/><path class="cls-5" d="M344.72,204.42a.4.4,0,1,1-.4-.4A.4.4,0,0,1,344.72,204.42Zm10.72,2.21v.26a1.37,1.37,0,0,1-1.37,1.37h0a1.42,1.42,0,0,1-.45-.08,9.26,9.26,0,0,1-.57,1.19c.4.07,1.09.26,1.09.8H353v1.06h.84a.27.27,0,0,1,.27.27v.27a1.37,1.37,0,1,1-2.74,0h0v-.23a9.81,9.81,0,0,1-1.79,1.42c.41.09,1,.29,1,.77h-1.11v1.07h.84a.27.27,0,0,1,.27.27v.27a1.37,1.37,0,0,1-2.74,0h0v-.27a.27.27,0,0,1,.27-.27h.83v-1.07h-.83c-.27.11-.54.21-.82.3l.64,4a.4.4,0,0,1-.33.46h-6.47a.4.4,0,0,1-.41-.4s0,0,0-.06l.64-4c-.28-.09-.55-.19-.81-.29h-.84v1.06h.84a.27.27,0,0,1,.26.27v.27a1.37,1.37,0,1,1-2.73,0h0v-.27a.27.27,0,0,1,.26-.27h.84v-1.06h-1.1c0-.49.55-.69.95-.78a9.81,9.81,0,0,1-1.79-1.42v.23a1.37,1.37,0,1,1-2.73,0h0v-.27a.27.27,0,0,1,.26-.27h.84v-1.06h-1.1c0-.54.68-.73,1.08-.8a9.26,9.26,0,0,1-.57-1.19,1.36,1.36,0,0,1-1.82-1.29h0v-.26a.27.27,0,0,1,.27-.27h.83v-1.07h-1.1c0-.54.7-.74,1.1-.8v0a9.8,9.8,0,0,1,.24-2.16,1.33,1.33,0,0,1,0-.28h0v-.27a.25.25,0,0,1,.24-.26,10,10,0,0,1,.4-1.08h-.64c0-.51.63-.71,1-.79a10.37,10.37,0,0,1,2.61-3.06,1.09,1.09,0,0,1,.53-.39,10,10,0,0,1,11.28,0,1.09,1.09,0,0,1,.53.39,10.22,10.22,0,0,1,2.61,3.06c.4.08,1,.28,1,.79h-.65a8.22,8.22,0,0,1,.4,1.08.26.26,0,0,1,.25.26V202a1.33,1.33,0,0,1,0,.28,10.4,10.4,0,0,1,.23,2.15v0c.4.06,1.1.26,1.1.8h-1.1v1.07h.84a.26.26,0,0,1,.26.26Zm-2.1-.27a9.51,9.51,0,0,0,.16-1.07h-.8a.66.66,0,0,1,.39-.57h-3.17a5.59,5.59,0,0,1-.62,2.3l3.13,1.81a8.45,8.45,0,0,0,.52-1.15,1.4,1.4,0,0,1-.25-.79h0v-.26a.27.27,0,0,1,.27-.27Zm-6.25,2.35a5.12,5.12,0,0,0,1.48-1.49l-2.63-1.52.23,1.43Zm-.68-.1.07.43.14-.07Zm2.43-1.85a5,5,0,0,0,.54-2h-3.59l0,.3Zm-6.37.37.23-1.43-2.63,1.52a5.16,5.16,0,0,0,1.49,1.49ZM342,209l.14.07.07-.43Zm.79-3.95.05-.3h-3.6a5,5,0,0,0,.54,2Zm-6.87,1.61v.26a1.4,1.4,0,0,1-.25.79,9.88,9.88,0,0,0,.52,1.15l3.13-1.81a5.59,5.59,0,0,1-.62-2.3h-3.17a.65.65,0,0,1,.39.57h-.8c0,.36.09.72.16,1.07h.37A.27.27,0,0,1,335.94,206.63Zm-.83-2.44h3.61a5.55,5.55,0,0,1,.62-2.3l-2.55-1.48h-.65v1.07H337a.26.26,0,0,1,.26.27V202a1.36,1.36,0,0,1-1.36,1.37h0a1.52,1.52,0,0,1-.69-.19C335.15,203.53,335.12,203.86,335.11,204.19Zm.5-2.71v0Zm7.33,2.71,0-.2-3.17-1.84a5,5,0,0,0-.54,2Zm.13-.77.05-.37,0-.08-1.59-2.77a5.16,5.16,0,0,0-1.49,1.49Zm.56-.7h.42v-3.33a5.15,5.15,0,0,0-2,.54Zm.42-3.86v-.38a1.36,1.36,0,0,1-1.1-1.34h0v-.27a.27.27,0,0,1,.27-.26h.83v-1.07H343a.65.65,0,0,1,0-.2,8.9,8.9,0,0,0-2.74.85c.3.12.56.32.56.65h-.57l1.51,2.63A5.47,5.47,0,0,1,344.05,198.86Zm-4.34-1h.53l-.53-.9Zm6-1v.27a1.37,1.37,0,0,1-1.1,1.34v.38a5.43,5.43,0,0,1,2.3.61l1.52-2.63h-.58c0-.33.26-.53.56-.65a8.82,8.82,0,0,0-2.74-.85.45.45,0,0,1,0,.2h-1.1v1.07h.83A.27.27,0,0,1,345.69,196.87Zm2.72,1h.52V197Zm-3.82,4.81H345l1.6-2.79a5.11,5.11,0,0,0-2-.54Zm.9.25,0,.08.06.37,3-1.73a5.12,5.12,0,0,0-1.48-1.49Zm.18,1,0,.2h3.68a5,5,0,0,0-.54-2Zm7.36-2.51h0l0,0Zm-3.73.41a5.55,5.55,0,0,1,.62,2.3h3.61c0-.33,0-.66-.08-1a1.48,1.48,0,0,1-.68.19A1.37,1.37,0,0,1,351.4,202h0v-.27a.27.27,0,0,1,.27-.27h.83v-1.07h-.64Zm.21-5h-.05v1.07h.84a.27.27,0,0,1,.27.27v.27a1.38,1.38,0,0,1-1.36,1.37,1.36,1.36,0,0,1-1.32-1l-.54.92a5.64,5.64,0,0,1,1.69,1.68l3.12-1.8A9.25,9.25,0,0,0,349.51,196.84Zm-13,2.78,3.13,1.8a5.72,5.72,0,0,1,1.68-1.68l-.53-.92a1.37,1.37,0,0,1-1.68,1,1.36,1.36,0,0,1-1-1.32h0v-.27a.27.27,0,0,1,.26-.27h.84v-1.07h-.05A9.25,9.25,0,0,0,336.48,199.62Zm.47,11.61a9.7,9.7,0,0,1-.81-1v1Zm2.54,1.07,1.8-3.13a5.72,5.72,0,0,1-1.68-1.68l-3.13,1.8.12.19c.33.12.64.32.64.68h-.15A9.25,9.25,0,0,0,339.49,212.3Zm2,.92.58-3.63-.32-.15-1.8,3.13A9.48,9.48,0,0,0,341.49,213.22Zm5.57,4.46-2.28-14.16h-.92l-2.27,14.16Zm1.64-5.11-1.81-3.13-.32.15.58,3.63A9.58,9.58,0,0,0,348.7,212.57Zm2.85-2.4h-.15c0-.37.31-.57.64-.69l.12-.19L349,207.48a5.67,5.67,0,0,1-1.69,1.69l1.81,3.13A9.52,9.52,0,0,0,351.55,210.17Zm.95.07a11.15,11.15,0,0,1-.8,1h.8Z" transform="translate(-22.59 -18.5)"/><path class="cls-5" d="M159.17,277.28a1,1,0,1,0-1,1,1,1,0,0,0,1-1Z" transform="translate(-22.59 -18.5)"/><path class="cls-5" d="M167.49,277.28a1,1,0,1,0-1,1,1,1,0,0,0,1-1Z" transform="translate(-22.59 -18.5)"/><path class="cls-5" d="M158.21,278.69a2.43,2.43,0,0,0-2.42,2.43v1.22a.41.41,0,1,0,.81,0v-1.22a1.61,1.61,0,0,1,.32-1,.14.14,0,0,1,.12-.06.15.15,0,0,1,.15.14V287a.4.4,0,1,0,.8,0V283.3a.22.22,0,0,1,.22-.22.22.22,0,0,1,.23.22V287a.4.4,0,1,0,.8,0v-6.79a.15.15,0,0,1,.06-.11.15.15,0,0,1,.21,0,1.61,1.61,0,0,1,.32,1v1.22a.41.41,0,1,0,.81,0v-1.22A2.43,2.43,0,0,0,158.21,278.69Z" transform="translate(-22.59 -18.5)"/><path class="cls-5" d="M166.54,283.94h-.22V287a.41.41,0,0,1-.81,0v-3.08h-.76a.37.37,0,0,1-.15,0,.4.4,0,0,1-.22-.53l1.35-3.24a.21.21,0,0,0-.11-.28.22.22,0,0,0-.26.08,11.53,11.53,0,0,0-1.18,2.42.4.4,0,0,1-.51.25.42.42,0,0,1-.25-.52,12.6,12.6,0,0,1,1-2.2,2.42,2.42,0,0,1,4.18,0,12.56,12.56,0,0,1,1,2.2.4.4,0,0,1-.24.52.42.42,0,0,1-.52-.25,11.06,11.06,0,0,0-1.18-2.42.22.22,0,0,0-.29-.06.23.23,0,0,0-.08.26l1.36,3.24a.45.45,0,0,1,0,.16.4.4,0,0,1-.4.4h-.76V287a.41.41,0,0,1-.81,0v-3.08Z" transform="translate(-22.59 -18.5)"/><rect class="cls-5" x="139.24" y="257.68" width="0.37" height="11.24"/><path class="cls-5" d="M394.44,282.52a1,1,0,1,0-.95,1,1,1,0,0,0,.95-1Z" transform="translate(-22.59 -18.5)"/><path class="cls-5" d="M402.76,282.52a1,1,0,0,0-1.91,0,1,1,0,1,0,1.91,0Z" transform="translate(-22.59 -18.5)"/><path class="cls-5" d="M393.49,283.94a2.42,2.42,0,0,0-2.43,2.42v1.23a.41.41,0,0,0,.81,0v-1.23a1.61,1.61,0,0,1,.32-1,.16.16,0,0,1,.12-.06.15.15,0,0,1,.15.15v6.78a.4.4,0,1,0,.8,0v-3.71a.22.22,0,0,1,.23-.22.22.22,0,0,1,.22.22v3.71a.4.4,0,1,0,.8,0v-6.78a.17.17,0,0,1,.06-.12.16.16,0,0,1,.21,0,1.61,1.61,0,0,1,.32,1v1.23a.41.41,0,0,0,.81,0v-1.23A2.42,2.42,0,0,0,393.49,283.94Z" transform="translate(-22.59 -18.5)"/><path class="cls-5" d="M401.81,289.19h-.22v3.07a.41.41,0,1,1-.81,0v-3.07H400l-.15,0a.4.4,0,0,1-.22-.53l1.35-3.25a.2.2,0,0,0-.11-.27.21.21,0,0,0-.26.08,10.74,10.74,0,0,0-1.17,2.41.42.42,0,0,1-.52.25.4.4,0,0,1-.25-.51,12.69,12.69,0,0,1,1-2.21,2.43,2.43,0,0,1,4.18,0,12.65,12.65,0,0,1,1,2.21.39.39,0,0,1-.24.51.42.42,0,0,1-.52-.25,10.78,10.78,0,0,0-1.18-2.41.2.2,0,0,0-.28-.07.21.21,0,0,0-.08.26l1.35,3.25a.41.41,0,0,1-.37.56h-.76v3.07a.41.41,0,1,1-.81,0v-3.07Z" transform="translate(-22.59 -18.5)"/><rect class="cls-5" x="374.51" y="262.93" width="0.37" height="11.24"/><path class="cls-5" d="M514.1,91.32a1,1,0,1,0-1,1,1,1,0,0,0,1-1Z" transform="translate(-22.59 -18.5)"/><path class="cls-5" d="M522.42,91.32a1,1,0,1,0-1,1,1,1,0,0,0,1-1Z" transform="translate(-22.59 -18.5)"/><path class="cls-5" d="M513.14,92.74a2.42,2.42,0,0,0-2.42,2.42v1.23a.4.4,0,1,0,.8,0V95.16a1.62,1.62,0,0,1,.33-1,.14.14,0,0,1,.11-.06.15.15,0,0,1,.15.15v6.78a.41.41,0,1,0,.81,0V97.34a.22.22,0,1,1,.44,0v3.72a.41.41,0,1,0,.81,0V94.28a.14.14,0,0,1,.06-.12.14.14,0,0,1,.2,0,1.62,1.62,0,0,1,.33,1v1.23a.4.4,0,1,0,.8,0V95.16A2.42,2.42,0,0,0,513.14,92.74Z" transform="translate(-22.59 -18.5)"/><path class="cls-5" d="M521.46,98h-.22v3.07a.41.41,0,1,1-.81,0V98h-.76l-.15,0a.41.41,0,0,1-.22-.53l1.36-3.25a.21.21,0,0,0-.12-.27.19.19,0,0,0-.25.08,10.78,10.78,0,0,0-1.18,2.41.42.42,0,0,1-.52.25.4.4,0,0,1-.24-.52,12.9,12.9,0,0,1,1-2.2,2.43,2.43,0,0,1,4.18,0,13,13,0,0,1,1,2.2.42.42,0,0,1-.25.52.4.4,0,0,1-.51-.25A11.22,11.22,0,0,0,522.64,94a.21.21,0,0,0-.37.19l1.35,3.25a.41.41,0,0,1-.37.56h-.76v3.07a.41.41,0,1,1-.81,0V98Z" transform="translate(-22.59 -18.5)"/><rect class="cls-5" x="494.16" y="71.73" width="0.37" height="11.24"/><circle class="cls-5" cx="325.11" cy="147.32" r="5.37"/><path class="cls-7" d="M346.7,161.49a1.43,1.43,0,0,1,.79.23l0,0,0,0h0a1.55,1.55,0,0,1,.31-.06H348a1.34,1.34,0,0,1,.74.22l0,0,0,0,0,0a1.49,1.49,0,0,1,.51-.14h.08a1.31,1.31,0,0,1,.89,2.27v.46h.84a.74.74,0,0,1,.74.71v2.12a.74.74,0,0,1-.74.73h-.84v.84a.73.73,0,0,1-.7.73h-4a.72.72,0,0,1-.73-.71v-5a1.13,1.13,0,0,1-.41-.87,1.1,1.1,0,0,1,1.1-1.1h.09a1.47,1.47,0,0,1,1-.51h.08Zm-1.57,2.66v4.78a.43.43,0,0,0,.4.42h4a.42.42,0,0,0,.4-.4v-4.66l-.11.05,0,0-.07,0h-.48l-.11,0H349l-.09,0h0l0,0h0l0,0h0l0,0,0,0,0,0h0l-.13.07-.05,0h0l-.05,0h-.08l-.05,0h-.4a1.61,1.61,0,0,1-.33-.06l-.05,0-.05,0h0l0,0,0,0-.09,0h-.05l0,0-.07,0h-.17a.86.86,0,0,1-.23,0h-.26l-.08,0h-.12l0,0h-.11l-.07,0,0,0-.07,0h0l0,0h-.72Zm1.15.8v3.14H346V165Zm1,0v3.14h-.32V165Zm.94,0v3.14h-.32V165Zm.94,0v3.14h-.31V165Zm2-.11h-.84v.63h.63v1.68h-.63v.63h.84a.42.42,0,0,0,.42-.42h0v-2.1a.42.42,0,0,0-.42-.42Zm-.52.94h-.32v1.05h.32Zm-3.88-4a1.13,1.13,0,0,0-1,.56.83.83,0,0,0-.22,0,.78.78,0,0,0-.3,1.51h.07l.07,0h.38l0,0,.11,0h0l0,0,.12.1.05,0h0l.05,0,0,0h0l.11.05H347l.19-.07.15-.08,0,0,0,0a1,1,0,0,0,.23.12h.69l0,0,.07,0,0,0h0a.83.83,0,0,0,.18-.13l0,0,0,0,.13.1,0,0h.06l.14.06h.1l.13,0h.48l0,0a1,1,0,0,0-.43-1.89,1,1,0,0,0-.64.23A1,1,0,0,0,348,162a1,1,0,0,0-.46.11A1.15,1.15,0,0,0,346.7,161.8Z" transform="translate(-22.59 -18.5)"/><path class="cls-5" d="M518,215.19a1.86,1.86,0,1,0,1.87,1.88A1.88,1.88,0,0,0,518,215.19Zm0,2.56a.7.7,0,1,1,0-1.39.7.7,0,1,1,0,1.39Z" transform="translate(-22.59 -18.5)"/><path class="cls-5" d="M518,211.68a5.38,5.38,0,1,0,5.34,5.41A5.38,5.38,0,0,0,518,211.68Zm0,7.72a6.24,6.24,0,0,1-4.7-2.38,5.9,5.9,0,0,1,9.43.07A6.22,6.22,0,0,1,517.94,219.4Z" transform="translate(-22.59 -18.5)"/><path class="cls-5" d="M447.8,260.05a1.86,1.86,0,1,0,1.87,1.87A1.87,1.87,0,0,0,447.8,260.05Zm0,2.55a.69.69,0,0,1-.69-.7.7.7,0,0,1,.7-.69.71.71,0,0,1,.7.7A.7.7,0,0,1,447.78,262.6Z" transform="translate(-22.59 -18.5)"/><path class="cls-5" d="M447.83,256.53a5.38,5.38,0,1,0,5.33,5.42A5.37,5.37,0,0,0,447.83,256.53Zm-.06,7.73a6.22,6.22,0,0,1-4.7-2.39,5.91,5.91,0,0,1,9.43.07A6.25,6.25,0,0,1,447.77,264.26Z" transform="translate(-22.59 -18.5)"/><path class="cls-5" d="M245.26,379.53a1.86,1.86,0,1,0,1.86,1.87A1.88,1.88,0,0,0,245.26,379.53Zm0,2.56a.71.71,0,0,1-.7-.7.7.7,0,0,1,1.4,0A.7.7,0,0,1,245.24,382.09Z" transform="translate(-22.59 -18.5)"/><path class="cls-5" d="M245.28,376a5.37,5.37,0,1,0,5.34,5.41A5.37,5.37,0,0,0,245.28,376Zm-.05,7.72a6.22,6.22,0,0,1-4.7-2.38,5.91,5.91,0,0,1,9.43.06A6.24,6.24,0,0,1,245.23,383.74Z" transform="translate(-22.59 -18.5)"/><path class="cls-5" d="M111.8,175.37a1.86,1.86,0,1,0,1.86,1.87A1.87,1.87,0,0,0,111.8,175.37Zm0,2.55a.7.7,0,1,1,.71-.69A.7.7,0,0,1,111.78,177.92Z" transform="translate(-22.59 -18.5)"/><path class="cls-5" d="M111.82,171.85a5.38,5.38,0,1,0,5.34,5.41A5.37,5.37,0,0,0,111.82,171.85Zm0,7.73a6.28,6.28,0,0,1-4.7-2.39,5.9,5.9,0,0,1,9.43.07A6.28,6.28,0,0,1,111.77,179.58Z" transform="translate(-22.59 -18.5)"/><g id="issue_de_secours" data-name="issue de secours"><path class="cls-7" d="M92.19,239.33l2-.75a.28.28,0,0,0,.17-.35l-.13-.43a.22.22,0,0,0-.31-.15l-.66.26,1.11-2.24a.25.25,0,0,0-.11-.34l-.38-.19a.24.24,0,0,0-.33.12l-1.12,2.27-.21-.7a.23.23,0,0,0-.32-.16l-.42.16a.29.29,0,0,0-.17.35l.6,2A.21.21,0,0,0,92.19,239.33Z" transform="translate(-22.59 -18.5)"/><path class="cls-7" d="M86.52,235.19c-.23.61-.55,1.34-.71,1.71a16.77,16.77,0,0,1-2.27-.22.63.63,0,0,0-.72.48.61.61,0,0,0,.52.69l1.4.18a9.6,9.6,0,0,0,1,.06c.61,0,1-.1,1.13-.42s.46-1,.74-1.71l-.78-.49A1.24,1.24,0,0,1,86.52,235.19Z" transform="translate(-22.59 -18.5)"/><path class="cls-7" d="M89.25,235.2a10.21,10.21,0,0,1,1.37-2.35,3.11,3.11,0,0,0,1.24.28l.36,0a6.63,6.63,0,0,0,2-1,.44.44,0,0,0,.09-.65.53.53,0,0,0-.7-.09,5.26,5.26,0,0,1-1.53.82,2.23,2.23,0,0,1-1.42-.38c-.23-.12-.72-.43-1-.57a3.37,3.37,0,0,0-3,.28A9.75,9.75,0,0,0,85.23,233a.43.43,0,0,0,.11.63.5.5,0,0,0,.29.09.53.53,0,0,0,.4-.19,8.3,8.3,0,0,1,1.19-1.28,2.09,2.09,0,0,1,.71-.28,7.55,7.55,0,0,0-1.23,2.36c-.12.58.15.78.25.85s2.16,1.33,2.44,1.62c-.08.41-.47,1.61-.82,2.6a.58.58,0,0,0,.41.75.68.68,0,0,0,.2,0,.62.62,0,0,0,.61-.4,16,16,0,0,0,.9-3.1C90.72,236.25,90.25,235.85,89.25,235.2Z" transform="translate(-22.59 -18.5)"/><ellipse class="cls-7" cx="68.31" cy="211.57" rx="1.37" ry="1.27"/></g><g id="issue_de_secours-2" data-name="issue de secours"><path class="cls-7" d="M559.39,188.65l.63-2a.28.28,0,0,0-.16-.35l-.42-.16a.22.22,0,0,0-.31.14l-.21.68-1.07-2.26a.26.26,0,0,0-.33-.13l-.39.19a.26.26,0,0,0-.11.34l1.09,2.28-.68-.27a.23.23,0,0,0-.32.15l-.13.43a.26.26,0,0,0,.16.34l2,.79A.21.21,0,0,0,559.39,188.65Z" transform="translate(-22.59 -18.5)"/><path class="cls-7" d="M551.7,184.93c-.2.62-.48,1.37-.63,1.75a16.78,16.78,0,0,1-2.27-.11.63.63,0,0,0-.71.51.61.61,0,0,0,.56.66s.7.07,1.4.11c.39,0,.72,0,1,0,.6,0,.94-.14,1.1-.47a17,17,0,0,0,.66-1.74l-.8-.46A1.24,1.24,0,0,1,551.7,184.93Z" transform="translate(-22.59 -18.5)"/><path class="cls-7" d="M554.43,184.82a10.19,10.19,0,0,1,1.26-2.41,3.06,3.06,0,0,0,1.25.22,2,2,0,0,0,.35,0,6.53,6.53,0,0,0,1.92-1.09.44.44,0,0,0,.06-.65.52.52,0,0,0-.7-.06,5.5,5.5,0,0,1-1.5.9,2.3,2.3,0,0,1-1.43-.32c-.24-.11-.74-.39-1-.52a3.36,3.36,0,0,0-2.94.42,9.73,9.73,0,0,0-1.34,1.55.43.43,0,0,0,.14.62.53.53,0,0,0,.29.08.51.51,0,0,0,.39-.21,9.34,9.34,0,0,1,1.13-1.34,2.58,2.58,0,0,1,.7-.31,7.46,7.46,0,0,0-1.12,2.42c-.09.59.19.78.29.83s2.23,1.23,2.51,1.51c-.06.41-.39,1.63-.7,2.64a.58.58,0,0,0,.45.72.5.5,0,0,0,.21,0,.62.62,0,0,0,.58-.43,15.94,15.94,0,0,0,.76-3.14C556,185.8,555.46,185.42,554.43,184.82Z" transform="translate(-22.59 -18.5)"/><ellipse class="cls-7" cx="555.84" cy="179.62" rx="1.37" ry="1.27" transform="translate(-30.4 7.75) rotate(-2.69)"/></g><path class="cls-5" d="M321.43,377.33a1.86,1.86,0,1,0,1.87,1.88A1.87,1.87,0,0,0,321.43,377.33Zm0,2.56a.7.7,0,1,1,.71-.69A.7.7,0,0,1,321.41,379.89Z" transform="translate(-22.59 -18.5)"/><path class="cls-5" d="M321.46,373.82a5.38,5.38,0,1,0,5.33,5.41A5.37,5.37,0,0,0,321.46,373.82Zm-.06,7.72a6.24,6.24,0,0,1-4.7-2.38,5.9,5.9,0,0,1,9.43.07A6.2,6.2,0,0,1,321.4,381.54Z" transform="translate(-22.59 -18.5)"/><path class="cls-5" d="M64,210.77a1.86,1.86,0,1,0,1.87,1.87A1.88,1.88,0,0,0,64,210.77Zm0,2.56a.71.71,0,0,1-.7-.7.71.71,0,0,1,1.41,0A.71.71,0,0,1,64,213.33Z" transform="translate(-22.59 -18.5)"/><path class="cls-5" d="M64,207.26a5.37,5.37,0,1,0,5.34,5.41A5.38,5.38,0,0,0,64,207.26ZM64,215a6.24,6.24,0,0,1-4.7-2.38,5.91,5.91,0,0,1,9.43.06A6.23,6.23,0,0,1,64,215Z" transform="translate(-22.59 -18.5)"/><circle class="cls-5" cx="329.62" cy="249.4" r="5.37"/><path class="cls-7" d="M354.89,272h-5.35a.16.16,0,0,1-.16-.16v-3.49l-.11.11a.14.14,0,0,1-.16,0,11.5,11.5,0,0,1-1.57-1.43.14.14,0,0,1,0-.17,19.82,19.82,0,0,1,1.56-2,4.14,4.14,0,0,1,2-1,.17.17,0,0,1,.12,0,1.84,1.84,0,0,0,1,.25,1.88,1.88,0,0,0,1-.25.17.17,0,0,1,.12,0,4.18,4.18,0,0,1,2,1,17.55,17.55,0,0,1,1.56,2,.15.15,0,0,1,0,.17,11.5,11.5,0,0,1-1.57,1.43.14.14,0,0,1-.16,0l-.11-.11v3.49A.16.16,0,0,1,354.89,272Zm-5.2-.31h5.05V268a.14.14,0,0,1,.09-.14.15.15,0,0,1,.17,0l.29.28c.22-.17.79-.71,1.3-1.23a22.25,22.25,0,0,0-1.47-1.86,3.68,3.68,0,0,0-1.78-.92,2.56,2.56,0,0,1-2.25,0,3.68,3.68,0,0,0-1.78.92,22.25,22.25,0,0,0-1.47,1.86c.51.52,1.08,1.06,1.3,1.23l.29-.28a.15.15,0,0,1,.17,0,.14.14,0,0,1,.09.14Z" transform="translate(-22.59 -18.5)"/><path class="cls-7" d="M352.21,265.32a1.2,1.2,0,0,1-1-.38,1.37,1.37,0,0,1-.27-1,.15.15,0,0,1,.1-.12.16.16,0,0,1,.15,0,2.15,2.15,0,0,0,2,0,.16.16,0,0,1,.15,0,.15.15,0,0,1,.1.12,1.37,1.37,0,0,1-.27,1A1.22,1.22,0,0,1,352.21,265.32Zm-.94-1.09a.92.92,0,0,0,.19.51,1.19,1.19,0,0,0,1.51,0,.92.92,0,0,0,.19-.51,2.71,2.71,0,0,1-1.89,0Z" transform="translate(-22.59 -18.5)"/><path class="cls-7" d="M355.27,268.5a.15.15,0,0,1-.11,0l-.38-.37a.15.15,0,0,1,0-.11V265.6s0-.65.45-.79a.16.16,0,0,1,.17.05,17.55,17.55,0,0,1,1.56,2,.15.15,0,0,1,0,.17,11.5,11.5,0,0,1-1.57,1.43Zm-.22-.58.24.23c.22-.17.79-.71,1.3-1.23a22.14,22.14,0,0,0-1.39-1.77.8.8,0,0,0-.15.45Z" transform="translate(-22.59 -18.5)"/><path class="cls-7" d="M349.16,268.5h-.05a11.5,11.5,0,0,1-1.57-1.43.14.14,0,0,1,0-.17,19.82,19.82,0,0,1,1.56-2,.14.14,0,0,1,.16-.05c.46.14.46.76.46.79V268a.15.15,0,0,1,0,.11l-.38.37A.15.15,0,0,1,349.16,268.5Zm-1.32-1.58c.51.52,1.08,1.06,1.3,1.23l.24-.23V265.6a.72.72,0,0,0-.15-.45A22.14,22.14,0,0,0,347.84,266.92Z" transform="translate(-22.59 -18.5)"/><path class="cls-7" d="M349.16,268.5h-.05a11.5,11.5,0,0,1-1.57-1.43.14.14,0,0,1,0-.17,4.59,4.59,0,0,1,.42-.63.14.14,0,0,1,.12-.06.14.14,0,0,1,.12,0c.36.37.9.93,1.47,1.46a.13.13,0,0,1,.05.12V268a.15.15,0,0,1,0,.11l-.38.37A.15.15,0,0,1,349.16,268.5Zm-1.32-1.57c.51.51,1.08,1.05,1.3,1.22l.24-.23v0c-.49-.46-1-.93-1.31-1.29A3.38,3.38,0,0,0,347.84,266.93Z" transform="translate(-22.59 -18.5)"/><path class="cls-7" d="M355.27,268.5a.15.15,0,0,1-.11,0l-.38-.37a.15.15,0,0,1,0-.11v-.16a.13.13,0,0,1,.05-.12c.57-.53,1.11-1.09,1.47-1.46a.13.13,0,0,1,.12,0,.11.11,0,0,1,.11.06,4.08,4.08,0,0,1,.43.63.15.15,0,0,1,0,.17,11.5,11.5,0,0,1-1.57,1.43Zm-.22-.58.24.23c.22-.17.79-.71,1.3-1.22a3.38,3.38,0,0,0-.23-.34c-.35.36-.82.83-1.31,1.29v0Z" transform="translate(-22.59 -18.5)"/><circle class="cls-5" cx="448.96" cy="174.72" r="5.37"/><path class="cls-7" d="M472.14,195.35a.32.32,0,0,0-.42.17,1.81,1.81,0,1,1-3.32-1.42,1.83,1.83,0,0,1,.92-.94.32.32,0,1,0-.24-.59h0a2.44,2.44,0,1,0,2,4.45,2.42,2.42,0,0,0,1.23-1.25.33.33,0,0,0-.16-.43Z" transform="translate(-22.59 -18.5)"/><path class="cls-7" d="M470.24,191.1a1,1,0,1,0-1-1,1,1,0,0,0,1,1Zm0-1.28a.32.32,0,0,1,.32.32.31.31,0,0,1-.31.32.31.31,0,0,1-.32-.31h0a.32.32,0,0,1,.3-.34h0Z" transform="translate(-22.59 -18.5)"/><path class="cls-7" d="M475.46,195.47a.32.32,0,0,0-.43-.14h0l-.62.32-1.12-1.29a.41.41,0,0,0-.24-.11l-2.45,0,0-2.13,1.91,0a.32.32,0,0,0,.35-.29.32.32,0,0,0-.3-.34h0l-2.23,0a.31.31,0,0,0-.32.31h0l0,2.77a.31.31,0,0,0,.32.31h0l2.61,0,1.19,1.37a.3.3,0,0,0,.23.11.28.28,0,0,0,.15,0l.86-.43A.33.33,0,0,0,475.46,195.47Z" transform="translate(-22.59 -18.5)"/><circle class="cls-5" cx="270.14" cy="318.65" r="5.37"/><path class="cls-7" d="M293.32,339.29a.32.32,0,0,0-.42.17,1.81,1.81,0,1,1-2.41-2.36.32.32,0,0,0,.18-.42.31.31,0,0,0-.41-.17h0a2.44,2.44,0,0,0,2,4.45,2.52,2.52,0,0,0,1.24-1.25.32.32,0,0,0-.17-.43Z" transform="translate(-22.59 -18.5)"/><path class="cls-7" d="M291.42,335a1,1,0,1,0-1-1,1,1,0,0,0,1,1Zm0-1.28a.32.32,0,0,1,0,.64.32.32,0,0,1-.32-.32h0a.32.32,0,0,1,.3-.33h0Z" transform="translate(-22.59 -18.5)"/><path class="cls-7" d="M296.63,339.41a.32.32,0,0,0-.43-.14h0l-.63.32-1.12-1.29a.32.32,0,0,0-.24-.11l-2.45,0,0-2.13h1.92a.32.32,0,0,0,.34-.3.33.33,0,0,0-.29-.34h-.06l-2.23,0a.32.32,0,0,0-.32.32h0l0,2.77a.31.31,0,0,0,.32.31h0l2.61,0,1.19,1.37a.32.32,0,0,0,.24.11l.14,0,.86-.43A.32.32,0,0,0,296.63,339.41Z" transform="translate(-22.59 -18.5)"/><circle class="cls-5" cx="127.9" cy="199.36" r="5.37"/><path class="cls-7" d="M151.08,220a.32.32,0,0,0-.42.17,1.81,1.81,0,0,1-3.33-1.42,1.82,1.82,0,0,1,.93-.94.32.32,0,0,0-.24-.59h0a2.44,2.44,0,1,0,3.25,3.2.33.33,0,0,0-.16-.43Z" transform="translate(-22.59 -18.5)"/><path class="cls-7" d="M149.18,215.74a1,1,0,1,0-1-1,1,1,0,0,0,1,1Zm0-1.28a.32.32,0,0,1,.32.32.32.32,0,0,1-.32.32.32.32,0,0,1-.32-.31h0a.32.32,0,0,1,.31-.34h0Z" transform="translate(-22.59 -18.5)"/><path class="cls-7" d="M154.39,220.11A.32.32,0,0,0,154,220h0l-.62.32L152.21,219a.38.38,0,0,0-.23-.11l-2.45,0,0-2.13,1.91,0a.31.31,0,0,0,.34-.29.32.32,0,0,0-.29-.35h-2.29a.32.32,0,0,0-.31.32h0l0,2.77a.3.3,0,0,0,.32.31h0l2.62,0L153,220.9a.32.32,0,0,0,.24.11.23.23,0,0,0,.14,0l.86-.43A.32.32,0,0,0,154.39,220.11Z" transform="translate(-22.59 -18.5)"/><circle class="cls-5" cx="256.78" cy="307.75" r="5.37"/><path class="cls-7" d="M283,323.57a.25.25,0,0,0-.15-.42h-7a.25.25,0,0,0-.16.42L279,327.2V330h-.86a.47.47,0,0,0-.43.49.46.46,0,0,0,.43.48h2.58a.45.45,0,0,0,.42-.48.46.46,0,0,0-.42-.49h-.86V327.2Zm-1.7.56-1.93,2.18-1.93-2.18Z" transform="translate(-22.59 -18.5)"/><circle class="cls-5" cx="432.93" cy="172.6" r="5.37"/><path class="cls-7" d="M459.16,188.42A.25.25,0,0,0,459,188h-7a.25.25,0,0,0-.16.42l3.21,3.63v2.75h-.86a.46.46,0,0,0-.43.49.45.45,0,0,0,.43.48h2.58a.45.45,0,0,0,.42-.48.46.46,0,0,0-.42-.49H456v-2.75Zm-1.7.56-1.93,2.18L453.6,189Z" transform="translate(-22.59 -18.5)"/><circle class="cls-5" cx="504.24" cy="89.62" r="5.37"/><path class="cls-7" d="M528.68,112.37c0,.38-.71.76-1.85.76s-1.84-.38-1.84-.76.71-.77,1.84-.77S528.68,112,528.68,112.37Z" transform="translate(-22.59 -18.5)"/><path class="cls-7" d="M529.19,108.52l-.51,3.85H525l-.51-3.85a4.31,4.31,0,0,0,4.71,0Z" transform="translate(-22.59 -18.5)"/><path class="cls-7" d="M529.25,108.05v.1h0v0h0c-.17.43-1.18.77-2.4.77s-2.22-.34-2.39-.77h0v0h0l0-.1Z" transform="translate(-22.59 -18.5)"/><path class="cls-7" d="M529.23,108.18c-.17.44-1.18.77-2.4.77s-2.22-.33-2.39-.77a.66.66,0,0,1,.08-.13,1,1,0,0,1,.29-.23,4.5,4.5,0,0,1,2-.4,4.44,4.44,0,0,1,2,.4,1.07,1.07,0,0,1,.3.23Z" transform="translate(-22.59 -18.5)"/><path class="cls-7" d="M529.25,108.05a.31.31,0,0,1,0,.1h0s0,0,0,0c-.17.44-1.18.77-2.4.77s-2.22-.33-2.39-.77a0,0,0,0,1,0,0h0a.36.36,0,0,1,0-.1.46.46,0,0,1,.19-.34,4.74,4.74,0,0,1,4.47,0A.45.45,0,0,1,529.25,108.05Z" transform="translate(-22.59 -18.5)"/><path class="cls-7" d="M526.83,103.11c-1.63,0-3,.49-3,1.09a.5.5,0,0,0,0,.12.8.8,0,0,0,.29.37,6,6,0,0,0,5.29,0,.72.72,0,0,0,.28-.37.25.25,0,0,0,0-.12C529.78,103.6,528.46,103.11,526.83,103.11Zm2.58,1.33a1.87,1.87,0,0,1-.57.32,6,6,0,0,1-2,.3,5.89,5.89,0,0,1-2-.3,2,2,0,0,1-.58-.32.36.36,0,0,1-.13-.24c0-.14.18-.36.71-.55a5.88,5.88,0,0,1,2-.31,6,6,0,0,1,2,.31c.52.19.71.41.71.55A.34.34,0,0,1,529.41,104.44Z" transform="translate(-22.59 -18.5)"/><path class="cls-7" d="M529.55,104.2a.34.34,0,0,1-.14.24h.1l0,.25-.42,3v.11h-4.43l0-.11-.41-3,0-.25h.1a.36.36,0,0,1-.13-.24h-.24l0,.12.51,3.73h4.84l.51-3.73,0-.12Z" transform="translate(-22.59 -18.5)"/><circle class="cls-5" cx="362.12" cy="276.38" r="5.37"/><path class="cls-7" d="M386.56,299.13c0,.38-.71.76-1.85.76s-1.84-.38-1.84-.76.71-.76,1.84-.76S386.56,298.75,386.56,299.13Z" transform="translate(-22.59 -18.5)"/><path class="cls-7" d="M387.07,295.28l-.51,3.85h-3.69l-.52-3.85a4.33,4.33,0,0,0,4.72,0Z" transform="translate(-22.59 -18.5)"/><path class="cls-7" d="M387.13,294.82v.09h0v0h0c-.17.43-1.18.77-2.4.77s-2.22-.34-2.39-.77h0v0h0l0-.09Z" transform="translate(-22.59 -18.5)"/><path class="cls-7" d="M387.11,295c-.17.43-1.18.76-2.4.76s-2.22-.33-2.39-.76a.5.5,0,0,1,.08-.14,1,1,0,0,1,.29-.23,4.5,4.5,0,0,1,2-.4,4.44,4.44,0,0,1,2,.4,1.07,1.07,0,0,1,.3.23A1,1,0,0,1,387.11,295Z" transform="translate(-22.59 -18.5)"/><path class="cls-7" d="M387.13,294.82a.28.28,0,0,1,0,.09h0s0,0,0,0c-.17.43-1.18.76-2.4.76s-2.22-.33-2.39-.76a.08.08,0,0,1,0,0h0a.29.29,0,0,1,0-.09.46.46,0,0,1,.19-.35,4.82,4.82,0,0,1,4.47,0A.48.48,0,0,1,387.13,294.82Z" transform="translate(-22.59 -18.5)"/><path class="cls-7" d="M384.71,289.87c-1.63,0-2.95.49-2.95,1.09a.5.5,0,0,0,0,.12.76.76,0,0,0,.29.37,6,6,0,0,0,5.29,0,.68.68,0,0,0,.28-.37.5.5,0,0,0,0-.12C387.66,290.36,386.34,289.87,384.71,289.87Zm2.58,1.33a1.82,1.82,0,0,1-.58.32,6.61,6.61,0,0,1-4,0,1.82,1.82,0,0,1-.58-.32A.36.36,0,0,1,382,291c0-.14.18-.36.71-.55a6.61,6.61,0,0,1,4,0c.53.19.72.41.72.55A.34.34,0,0,1,387.29,291.2Z" transform="translate(-22.59 -18.5)"/><path class="cls-7" d="M387.43,291a.34.34,0,0,1-.14.24h.1l0,.25-.42,3v.11H382.5l0-.11-.41-3,0-.25h.1A.36.36,0,0,1,382,291h-.24l0,.12.51,3.74h4.84l.51-3.74,0-.12Z" transform="translate(-22.59 -18.5)"/><circle class="cls-5" cx="442.14" cy="315.24" r="5.37"/><path class="cls-7" d="M464.73,336.13a.53.53,0,0,1-.53-.53v-2a.54.54,0,0,1,1.07,0v2A.54.54,0,0,1,464.73,336.13Zm4.5-2.39a4.5,4.5,0,1,0-4.5,4.5h0A4.51,4.51,0,0,0,469.23,333.74Zm-1.06,0a3.44,3.44,0,1,1-3.44-3.44h0A3.44,3.44,0,0,1,468.17,333.74Zm-2.9-1.54h0a.54.54,0,0,0-1.07,0h0a.54.54,0,0,0,1.07,0Z" transform="translate(-22.59 -18.5)"/><circle class="cls-5" cx="284.8" cy="264.98" r="5.37"/><path class="cls-7" d="M306.39,279.15a1.46,1.46,0,0,1,.79.23l0,0,0,0h0a1.55,1.55,0,0,1,.31-.06h.09a1.37,1.37,0,0,1,.74.22l0,0,0,0,0,0a1.48,1.48,0,0,1,.51-.13h.08a1.31,1.31,0,0,1,1.31,1.31,1.3,1.3,0,0,1-.42,1v.46h.84a.72.72,0,0,1,.73.71V285a.73.73,0,0,1-.73.73H310v.84a.72.72,0,0,1-.71.73h-4a.74.74,0,0,1-.74-.71v-5a1.13,1.13,0,0,1-.42-.87,1.11,1.11,0,0,1,1.1-1.1h.08l0,0a1.47,1.47,0,0,1,1-.51h.08Zm-1.57,2.66v4.78a.42.42,0,0,0,.4.42h4a.42.42,0,0,0,.4-.4V282l-.12.05,0,0-.08,0h-.47l-.11,0h-.09l-.09,0h-.08l0,0h0l0,0,0,0,0,0,0,0h0l-.13.07-.06,0h0l-.05,0h0l-.05,0h-.45a1.91,1.91,0,0,1-.33-.06l0,0-.05,0h0l0,0h0l-.09,0-.05,0h0l-.06,0h-.66l-.08,0h-.16l0,0h-.07l-.07,0,0,0-.07,0,0,0,0,0h-.65l0,0Zm1.15.8v3.14h-.31v-3.14Zm.94,0v3.14h-.31v-3.14Zm.95,0v3.14h-.32v-3.14Zm.94,0v3.14h-.32v-3.14Zm2-.11H310v.63h.63v1.68H310v.63h.84a.42.42,0,0,0,.42-.42h0v-2.1a.42.42,0,0,0-.42-.42Zm-.52.95H310v1h.32Zm-3.88-4a1.18,1.18,0,0,0-1,.56.78.78,0,0,0-.51,1.48h.52l0,0,.11,0,0,0,0,0,.13.1,0,0h0l0,0,0,0h0l.11,0h.63l.2-.07.15-.08,0,0,0,0a.84.84,0,0,0,.23.12h.43l.11,0H308l.07,0,0,0h0a1,1,0,0,0,.18-.13l0,0,0,0,.13.1,0,0h.06l.14.06h.1l.13,0h.24l.07,0h.17l0,0a1,1,0,0,0-.43-1.89,1,1,0,0,0-.64.23,1,1,0,0,0-1.24-.23A1.11,1.11,0,0,0,306.39,279.46Z" transform="translate(-22.59 -18.5)"/><circle class="cls-5" cx="171.39" cy="228.67" r="5.37"/><path class="cls-7" d="M193,242.84a1.43,1.43,0,0,1,.79.23l0,0h0a1.45,1.45,0,0,1,.3-.06h.09a1.4,1.4,0,0,1,.75.22l0,0h0a1.29,1.29,0,0,1,.51-.14h.09a1.31,1.31,0,0,1,1.31,1.31,1.34,1.34,0,0,1-.42,1v.45h.84a.74.74,0,0,1,.73.71v2.12a.73.73,0,0,1-.73.73h-.84v.84a.75.75,0,0,1-.71.74h-4a.73.73,0,0,1-.73-.71v-5a1.08,1.08,0,0,1-.42-.86,1.1,1.1,0,0,1,1.1-1.1h.08v0a1.51,1.51,0,0,1,1-.51H193Zm-1.57,2.66v4.78a.42.42,0,0,0,.4.42h4a.41.41,0,0,0,.4-.4v-4.66l-.11.05-.05,0-.07,0h-.48l-.1,0h-.09l-.1,0,0,0h0l0,0h-.06l0,0,0,0,0,0h0l-.13.07,0,0h0l-.06,0h-.53a1.14,1.14,0,0,1-.33-.06l0,0h0l0,0,0,0h0l-.1,0,0,0h0l-.06,0h-.17l-.24,0-.2,0h-.18l0,0h-.08l0,0h-.08l-.07,0,0,0-.06,0,0,0,0,0h-.08l-.07,0h-.54Zm1.15.8v3.14h-.31V246.3Zm.95,0v3.14h-.32V246.3Zm.94,0v3.14h-.31V246.3Zm.94,0v3.14h-.31V246.3Zm2-.1h-.84v.62h.63v1.68h-.63v.63h.84a.41.41,0,0,0,.41-.42h0v-2.1a.41.41,0,0,0-.41-.41Zm-.53.94h-.31v1.05h.31Zm-3.88-4a1.15,1.15,0,0,0-1,.55.79.79,0,0,0-1,.76.8.8,0,0,0,.5.73h.06l.07,0H192l.11-.05,0,0,0,0,.12.1,0,0h0l0,0h0l0,0,.11,0h.64a1.52,1.52,0,0,0,.2-.06l.14-.08,0,0,0,0,.23.11,0,0h.4l.1,0h.2l.06,0,0,0h0l.19-.13,0,0,0,0,.13.1,0,0h0l.14.06h.1l.13,0h.51a1,1,0,1,0-1.07-1.66,1.06,1.06,0,0,0-1.23-.24A1.19,1.19,0,0,0,193,243.16Z" transform="translate(-22.59 -18.5)"/><circle class="cls-5" cx="189.48" cy="246.66" r="5.37"/><path class="cls-7" d="M211.07,260.83a1.46,1.46,0,0,1,.79.23l0,0h0a1,1,0,0,1,.3-.05h.1a1.39,1.39,0,0,1,.74.22l0,0h.05a1.25,1.25,0,0,1,.51-.14h.08a1.31,1.31,0,0,1,.89,2.27v.45h.84a.73.73,0,0,1,.73.71v2.12a.73.73,0,0,1-.73.73h-.84v.84a.74.74,0,0,1-.71.74h-4a.74.74,0,0,1-.73-.71v-5a1.1,1.1,0,0,1,.68-2h.08l0,0a1.51,1.51,0,0,1,1-.51h.08Zm-1.57,2.66v4.78a.41.41,0,0,0,.39.42h4a.43.43,0,0,0,.4-.4v-4.66l-.12.05,0,0-.07,0h-.48l-.1,0h-.09l-.1,0,0,0h0l0,0h-.06l0,0,0,0,0,0h0l-.13.07-.06,0h0l0,0h-.54a1.28,1.28,0,0,1-.33-.06l0,0h-.05l0,0,0,0h0l-.09,0-.05,0h0l-.06,0h-.17l-.23,0-.21,0h-.21l-.05,0h0l0,0h0l0,0h0l-.06,0,0,0-.06,0,0,0,0,0h-.07l-.08,0h-.54Zm1.15.8v3.14h-.32v-3.14Zm.94,0v3.14h-.31v-3.14Zm.94,0v3.14h-.31v-3.14Zm.95,0v3.14h-.32v-3.14Zm2-.1h-.84v.62h.63v1.68h-.63v.63h.84a.42.42,0,0,0,.42-.42h0v-2.09a.42.42,0,0,0-.42-.42Zm-.53.94h-.31v1.05h.31Zm-3.87-4a1.16,1.16,0,0,0-1,.55.79.79,0,0,0-.51,1.49h.06l.07,0h.43l.1-.05,0,0,0,0,.13.1,0,0h0l0,0h0l0,0,.11,0h.63a1.17,1.17,0,0,0,.2-.06l.15-.08,0,0,0,0,.23.11.05,0h.69l.06,0h.06l.18-.13,0,0,0,0,.13.1,0,0,0,0h0a.35.35,0,0,0,.14.06h.1l.13,0h.41l0,0h0a1,1,0,0,0-.42-1.9,1,1,0,0,0-.64.24,1,1,0,0,0-.77-.34,1.2,1.2,0,0,0-.47.1A1.15,1.15,0,0,0,211.07,261.15Z" transform="translate(-22.59 -18.5)"/><circle class="cls-5" cx="183.13" cy="235.14" r="5.37"/><path class="cls-23" d="M203.21,253.24l.08-2.61a.22.22,0,0,1,.22-.22h0a.24.24,0,0,1,.23.22l.06,1.71a.18.18,0,0,0,.16.18.18.18,0,0,0,.2-.16h0l.06-1.71a.23.23,0,0,1,.18-.23h.09a.26.26,0,0,1,.18.23l.05,1.71a.19.19,0,0,0,.19.17h0a.19.19,0,0,0,.17-.18l0-1.71a.24.24,0,0,1,.23-.22h0a.22.22,0,0,1,.22.22l.09,2.61a.7.7,0,0,1-.34.62l-.42.26v3a.25.25,0,0,1-.24.25h-.48a.25.25,0,0,1-.25-.25v-3l-.4-.24A.7.7,0,0,1,203.21,253.24Zm3.27,1.64h.57v2.27a.25.25,0,0,0,.24.25h.48c.14,0,.25-.11.25-.48v-6.33a.18.18,0,0,0-.2-.17l-.08,0h0a3.07,3.07,0,0,0-1.44,2.61v1.66a.18.18,0,0,0,.18.18h0Z" transform="translate(-22.59 -18.5)"/><circle class="cls-5" cx="272.51" cy="263.31" r="5.37"/><path class="cls-23" d="M292.58,281.42l.09-2.62a.22.22,0,0,1,.22-.22h0a.24.24,0,0,1,.23.22l.06,1.71a.18.18,0,0,0,.16.18.18.18,0,0,0,.2-.16h0l.06-1.71a.22.22,0,0,1,.17-.22h.09a.22.22,0,0,1,.18.22l.06,1.71a.18.18,0,0,0,.19.17h0a.18.18,0,0,0,.16-.18l.06-1.71a.24.24,0,0,1,.23-.22h0a.22.22,0,0,1,.22.22l.08,2.61a.71.71,0,0,1-.33.63l-.42.25v3a.25.25,0,0,1-.24.25h-.48a.25.25,0,0,1-.25-.25v-3l-.41-.25A.73.73,0,0,1,292.58,281.42Zm3.27,1.64h.57v2.26a.25.25,0,0,0,.25.25h.48c.14,0,.25-.11.25-.48v-6.33a.19.19,0,0,0-.2-.17.11.11,0,0,0-.08,0h0a3.06,3.06,0,0,0-1.45,2.6v1.66a.18.18,0,0,0,.18.18Z" transform="translate(-22.59 -18.5)"/><circle class="cls-5" cx="104.55" cy="215.01" r="5.37"/><path class="cls-7" d="M130.78,230.82a.25.25,0,0,0-.16-.41h-7a.24.24,0,0,0-.15.41l3.2,3.63v2.76h-.85a.49.49,0,0,0,0,1h2.57a.49.49,0,0,0,0-1h-.86v-2.76Zm-1.71.56-1.93,2.19-1.93-2.19Z" transform="translate(-22.59 -18.5)"/><circle class="cls-5" cx="150.27" cy="273.13" r="5.37"/><path class="cls-7" d="M174.71,295.88c0,.38-.71.76-1.85.76s-1.84-.38-1.84-.76.71-.76,1.84-.76S174.71,295.5,174.71,295.88Z" transform="translate(-22.59 -18.5)"/><path class="cls-7" d="M175.22,292l-.51,3.85H171l-.51-3.85a4.31,4.31,0,0,0,4.71,0Z" transform="translate(-22.59 -18.5)"/><path class="cls-7" d="M175.29,291.57l0,.09h0v0c-.17.44-1.18.77-2.39.77s-2.23-.33-2.4-.77v0h0v-.09Z" transform="translate(-22.59 -18.5)"/><path class="cls-7" d="M175.26,291.7c-.17.43-1.18.77-2.4.77s-2.22-.34-2.39-.77a.35.35,0,0,1,.08-.13,1.09,1.09,0,0,1,.3-.24,5.28,5.28,0,0,1,4,0,1.09,1.09,0,0,1,.3.24A.46.46,0,0,1,175.26,291.7Z" transform="translate(-22.59 -18.5)"/><path class="cls-7" d="M175.29,291.57a.29.29,0,0,1,0,.09h0v0c-.17.43-1.18.77-2.39.77s-2.23-.34-2.4-.77v0h0a.28.28,0,0,1,0-.09.46.46,0,0,1,.19-.35,3.74,3.74,0,0,1,2.23-.55,3.79,3.79,0,0,1,2.23.55A.5.5,0,0,1,175.29,291.57Z" transform="translate(-22.59 -18.5)"/><path class="cls-7" d="M172.86,286.62c-1.62,0-2.94.49-2.94,1.1a.41.41,0,0,0,0,.11.72.72,0,0,0,.29.37,6,6,0,0,0,5.29,0,.72.72,0,0,0,.29-.37.37.37,0,0,0,0-.11C175.81,287.11,174.49,286.62,172.86,286.62Zm2.58,1.33a1.53,1.53,0,0,1-.57.32,5.94,5.94,0,0,1-2,.31,5.88,5.88,0,0,1-2-.31,1.58,1.58,0,0,1-.58-.32.34.34,0,0,1-.13-.23c0-.14.19-.36.71-.56a6.15,6.15,0,0,1,2-.3,6.21,6.21,0,0,1,2,.3c.52.2.71.42.71.56A.33.33,0,0,1,175.44,288Z" transform="translate(-22.59 -18.5)"/><path class="cls-7" d="M175.58,287.72a.33.33,0,0,1-.14.23h.1l0,.25-.41,3,0,.12h-4.43l0-.12-.41-3,0-.25h.09a.34.34,0,0,1-.13-.23h-.23v.11l.51,3.74h4.84l.52-3.74v-.11Z" transform="translate(-22.59 -18.5)"/><circle class="cls-5" cx="304.2" cy="259.61" r="5.37"/><path class="cls-7" d="M326.79,280.5a.53.53,0,0,1-.53-.53v-2a.54.54,0,0,1,1.07,0v2A.53.53,0,0,1,326.79,280.5Zm4.5-2.39a4.5,4.5,0,1,0-4.5,4.5h0A4.5,4.5,0,0,0,331.29,278.11Zm-1.06,0a3.44,3.44,0,1,1-3.44-3.43h0A3.43,3.43,0,0,1,330.23,278.11Zm-2.9-1.54h0a.54.54,0,0,0-1.07,0h0a.54.54,0,1,0,1.07,0Z" transform="translate(-22.59 -18.5)"/><circle class="cls-5" cx="330.48" cy="60.67" r="5.37"/><path class="cls-7" d="M352.07,74.84a1.43,1.43,0,0,1,.79.23l0,0,0,0h0a1.54,1.54,0,0,1,.31,0h.09a1.29,1.29,0,0,1,.74.22l0,0h0a1.29,1.29,0,0,1,.51-.14h.08a1.31,1.31,0,0,1,.89,2.27v.46h.84a.74.74,0,0,1,.74.7V80.7a.74.74,0,0,1-.74.74h-.84v.84a.73.73,0,0,1-.7.73h-4a.73.73,0,0,1-.73-.71v-5a1.1,1.1,0,0,1,.69-2h.07l0,0a1.49,1.49,0,0,1,1-.5h.08ZM350.5,77.5v4.78a.42.42,0,0,0,.4.41h4a.41.41,0,0,0,.4-.39V77.64l-.12,0h0l-.08,0h-.67l-.09,0h0l0,0h0l0,0h0l0,0,0,0,0,0h0l-.13.07-.05,0,0,0-.05,0h-.23l-.1,0h-.2a1.14,1.14,0,0,1-.33-.07h-.05l-.05,0h0l0,0,0,0-.09,0-.05,0,0,0h-.1l-.05,0h-.09l-.23,0h-.26l-.08,0h-.08l0,0h-.15l-.07,0,0,0-.07,0,0,0,0,0h-.07l-.07,0h-.58Zm1.15.79v3.15h-.31V78.29Zm.94,0v3.15h-.31V78.29Zm1,0v3.15h-.32V78.29Zm.94,0v3.15h-.31V78.29Zm2-.1h-.84v.63h.63v1.67h-.63v.63h.84a.42.42,0,0,0,.42-.42h0V78.61a.42.42,0,0,0-.42-.42Zm-.52.94h-.32v1.05H356Zm-3.88-4a1.13,1.13,0,0,0-1,.56.85.85,0,0,0-.22,0,.79.79,0,0,0-.3,1.52h.07l.07,0h.42l.11,0,0,0,0,0,.12.09.05,0h0l0,0h0l0,0,.11.05h.06l.05,0h.53l.19-.07.15-.08,0,0,0,0a1,1,0,0,0,.23.12h.69l0,0,.07,0,0,0h0a1.18,1.18,0,0,0,.18-.13l0,0,0,0,.13.1,0,0h.06l.14.06h.1l.13,0h.45l0,0h0a1,1,0,0,0-.43-1.9,1,1,0,0,0-.64.24,1,1,0,0,0-.77-.34,1,1,0,0,0-.46.11A1.15,1.15,0,0,0,352.07,75.15Z" transform="translate(-22.59 -18.5)"/><circle class="cls-5" cx="348.47" cy="56.83" r="5.37"/><path class="cls-7" d="M370.06,71a1.44,1.44,0,0,1,.79.24l0,0,0,0h0a1.12,1.12,0,0,1,.31-.05h.09a1.34,1.34,0,0,1,.74.22l0,0h0a1.29,1.29,0,0,1,.51-.14h.08A1.3,1.3,0,0,1,374,72.62a1.33,1.33,0,0,1-.41,1V74h.83a.75.75,0,0,1,.74.71v2.12a.74.74,0,0,1-.74.74h-.83v.83a.75.75,0,0,1-.71.74h-4a.73.73,0,0,1-.73-.71v-5a1.08,1.08,0,0,1-.42-.86,1.1,1.1,0,0,1,1.1-1.1h.08v0a1.46,1.46,0,0,1,1-.5h.07Zm-1.57,2.67v4.77a.42.42,0,0,0,.4.42h4a.41.41,0,0,0,.4-.39V73.79l-.11,0-.05,0-.07,0h-.59l-.05,0h0l-.09,0,0,0h-.07l0,0h0l0,0,0,0,0,0h0l-.13.07,0,0,0,0-.06,0h-.53a1.14,1.14,0,0,1-.33-.07h0l0,0,0,0h0l0,0-.09,0-.05,0h0l-.07,0h-.17l-.23,0-.2,0h-.22l0,0h-.12l0,0-.07,0,0,0-.06,0,0,0,0,0h-.08l-.07,0h-.58Zm1.15.79V77.6h-.31V74.45Zm.95,0V77.6h-.32V74.45Zm.94,0V77.6h-.31V74.45Zm.94,0V77.6h-.31V74.45Zm2-.1h-.83V75h.62v1.67h-.62v.63h.83a.42.42,0,0,0,.42-.42h0V74.77a.42.42,0,0,0-.42-.42Zm-.52.94h-.31v1h.31Zm-3.88-4a1.14,1.14,0,0,0-1,.55.83.83,0,0,0-.22,0,.79.79,0,0,0-.79.79.8.8,0,0,0,.5.73h.06l.07,0h.42l.11,0,0,0,0,0,.12.09,0,0h0l0,0h0l0,0,.11,0,0,0h.6a1.06,1.06,0,0,0,.19-.06l.15-.08,0,0,0,0a1,1,0,0,0,.23.11l0,0h.66l0,0,.06,0h.05a.83.83,0,0,0,.18-.13l0,0,0,0,.13.1,0,0,0,0h0l0,0,.14,0h.1l.13,0h.42l0,0h.06a1,1,0,0,0,.57-.9,1,1,0,0,0-1.64-.76,1,1,0,0,0-.77-.34,1,1,0,0,0-.46.11A1.15,1.15,0,0,0,370.06,71.31Z" transform="translate(-22.59 -18.5)"/><circle class="cls-5" cx="403.62" cy="41.67" r="5.37"/><path class="cls-7" d="M425.22,55.84a1.48,1.48,0,0,1,.79.23l0,0,0,0h0l.3-.06h.09a1.4,1.4,0,0,1,.75.22l0,0,0,0,0,0a1.43,1.43,0,0,1,.5-.14h.09a1.31,1.31,0,0,1,1.31,1.31,1.3,1.3,0,0,1-.42,1v.46h.84a.73.73,0,0,1,.73.71v2.12a.73.73,0,0,1-.73.73h-.84v.84a.74.74,0,0,1-.71.73h-4a.73.73,0,0,1-.73-.71v-5a1.11,1.11,0,0,1-.42-.87,1.1,1.1,0,0,1,1.1-1.1h.1a1.43,1.43,0,0,1,1-.51h.08Zm-1.58,2.66v4.78a.43.43,0,0,0,.4.42h4a.42.42,0,0,0,.39-.4V58.64l-.11,0-.05,0-.07,0h-.48l-.1,0h-.09l-.1,0h0l0,0h0l0,0h0l0,0,0,0,0,0h0l-.13.07-.05,0h0l-.06,0h-.08l0,0h-.41l-.33-.06,0,0-.05,0h0l0,0,0,0-.09.05h0l0,0-.06,0h-.17a.93.93,0,0,1-.23,0H425l-.07,0h-.13l0,0h-.11l-.06,0-.05,0-.06,0h0l0,0h-.73Zm1.16.8v3.14h-.32V59.3Zm.94,0v3.14h-.31V59.3Zm.94,0v3.14h-.31V59.3Zm.95,0v3.14h-.32V59.3Zm2-.11h-.84v.63h.63V61.5h-.63v.63h.84a.42.42,0,0,0,.42-.42h0v-2.1a.42.42,0,0,0-.42-.42Zm-.53.94h-.31v1h.31Zm-3.87-4a1.14,1.14,0,0,0-1,.56.78.78,0,0,0-.22,0,.78.78,0,0,0-.29,1.51h.06l.07,0h.39l0,0,.1-.05h0l0,0,.12.1.05,0h0l0,0,0,0h0l.11,0h.63l.2-.07.15-.08,0,0,0,0a1,1,0,0,0,.23.12h.7l0,0,.06,0,0,0h0l.19-.13,0,0,0,0,.12.1,0,0h.06l.14.06h.1l.13,0h.47l0,0a1,1,0,0,0-.42-1.89,1,1,0,0,0-.64.23,1.06,1.06,0,0,0-.78-.34,1,1,0,0,0-.46.11A1.15,1.15,0,0,0,425.22,56.15Z" transform="translate(-22.59 -18.5)"/><circle class="cls-5" cx="417.96" cy="34.41" r="5.37"/><path class="cls-7" d="M439.56,48.58a1.48,1.48,0,0,1,.79.23l0,0h0a1.59,1.59,0,0,1,.3-.06h.09a1.4,1.4,0,0,1,.75.22l0,0h.05a1.25,1.25,0,0,1,.5-.14h.09a1.31,1.31,0,0,1,.89,2.27v.45H444a.74.74,0,0,1,.73.71v2.12a.73.73,0,0,1-.73.73h-.84V56a.75.75,0,0,1-.71.74h-4a.74.74,0,0,1-.73-.71v-5a1.08,1.08,0,0,1-.42-.86,1.1,1.1,0,0,1,1.1-1.1h.08l0,0a1.45,1.45,0,0,1,1-.51h.08ZM438,51.24V56a.42.42,0,0,0,.4.42h4a.41.41,0,0,0,.39-.4V51.38l-.11,0-.05,0-.07,0h-.48l-.1,0h-.09l-.1,0,0,0h0l0,0h-.06l0,0,0,0,0,0h0l-.13.07-.05,0h0l-.06,0h-.53a1.28,1.28,0,0,1-.33-.06l0,0h-.05l0,0,0,0h0l-.09,0-.05,0h0l-.06,0h-.17l-.23,0-.21,0h-.17l-.05,0h-.08l0,0h-.08l-.06,0-.05,0-.06,0,0,0,0,0h-.08l-.07,0H438Zm1.16.8v3.14h-.32V52Zm.94,0v3.14h-.31V52Zm.94,0v3.14h-.31V52Zm1,0v3.14h-.32V52Zm2-.1h-.84v.62h.63v1.68h-.63v.63H444a.42.42,0,0,0,.42-.42h0v-2.1a.41.41,0,0,0-.42-.41Zm-.53.94h-.31v1h.31Zm-3.87-4a1.16,1.16,0,0,0-1,.55.79.79,0,0,0-.51,1.49h.06l.07,0h.43l.1-.05,0,0,0,0,.13.1,0,0h0l0,0h0l0,0,.11,0h.63a1.17,1.17,0,0,0,.2-.06l.15-.08,0,0,0,0,.23.11.05,0h.39l.1,0h.2l.06,0,0,0h0a.76.76,0,0,0,.19-.12l0,0,0,0,.12.1,0,0h.06a.35.35,0,0,0,.14.06h.1l.13,0h.5a1,1,0,0,0-.42-1.9,1,1,0,0,0-.64.24,1.06,1.06,0,0,0-.78-.34,1,1,0,0,0-.46.1A1.18,1.18,0,0,0,439.56,48.9Z" transform="translate(-22.59 -18.5)"/><circle class="cls-5" cx="385.9" cy="48.98" r="5.37"/><path class="cls-23" d="M406,67.08l.08-2.62a.23.23,0,0,1,.23-.21h0a.21.21,0,0,1,.22.21l.06,1.71a.19.19,0,0,0,.16.19.18.18,0,0,0,.2-.16h0l.06-1.72a.24.24,0,0,1,.18-.22h.09a.24.24,0,0,1,.18.22l.06,1.72a.18.18,0,0,0,.19.17h0a.19.19,0,0,0,.16-.19l.06-1.71a.21.21,0,0,1,.22-.21h0a.23.23,0,0,1,.23.21l.08,2.62a.69.69,0,0,1-.34.62l-.41.26v3a.25.25,0,0,1-.25.25H407a.25.25,0,0,1-.24-.25V68l-.41-.24A.7.7,0,0,1,406,67.08Zm3.27,1.64h.57V71a.25.25,0,0,0,.25.25h.48c.13,0,.25-.11.25-.49V64.42a.2.2,0,0,0-.2-.17l-.09,0h0a3.09,3.09,0,0,0-1.44,2.61v1.66a.18.18,0,0,0,.18.18h0Z" transform="translate(-22.59 -18.5)"/><circle class="cls-5" cx="367.93" cy="54.35" r="5.37"/><path class="cls-23" d="M388,72.45l.09-2.62a.21.21,0,0,1,.22-.21h0a.23.23,0,0,1,.23.21l.06,1.71a.19.19,0,0,0,.16.19.18.18,0,0,0,.2-.16h0l.06-1.72a.23.23,0,0,1,.17-.22h.09a.23.23,0,0,1,.18.22l.06,1.72a.19.19,0,0,0,.19.17h0a.19.19,0,0,0,.16-.19l.06-1.71a.23.23,0,0,1,.23-.21h0a.21.21,0,0,1,.22.21l.08,2.62a.7.7,0,0,1-.33.62l-.42.26v3a.25.25,0,0,1-.24.25H389a.25.25,0,0,1-.25-.25v-3l-.41-.24A.74.74,0,0,1,388,72.45Zm3.27,1.64h.57v2.27a.25.25,0,0,0,.25.25h.48c.14,0,.25-.11.25-.49V69.79a.2.2,0,0,0-.2-.17s-.06,0-.08,0h0a3.08,3.08,0,0,0-1.45,2.61v1.66a.18.18,0,0,0,.18.18h0Z" transform="translate(-22.59 -18.5)"/><circle class="cls-5" cx="331.51" cy="168.89" r="5.37"/><path class="cls-7" d="M356.63,187.24a.14.14,0,0,1,.13.15.13.13,0,0,1-.13.14h-6.1a.13.13,0,0,1-.13-.14.14.14,0,0,1,.13-.15Zm-6.1-1.09a.14.14,0,0,1-.13-.14.14.14,0,0,1,.13-.15h6.1a.14.14,0,0,1,.13.15.14.14,0,0,1-.13.14Z" transform="translate(-22.59 -18.5)"/><path class="cls-7" d="M356.74,185.92l.15.19.25.11a.14.14,0,0,1,.08.16h0l-.05.28.05.35a.14.14,0,0,1-.09.16l-.19.07-.2.24a.11.11,0,0,1-.18,0h0l-.15-.19-.25-.11a.14.14,0,0,1-.08-.16h0l.05-.28-.06-.35a.14.14,0,0,1,.09-.16l.2-.08.2-.23a.12.12,0,0,1,.18,0Zm0,.4-.08-.1-.12.15-.06,0-.13.05,0,.25h0s0,0,0,.06l0,.19.17.08a.07.07,0,0,1,.05,0l.08.1.13-.14a.1.1,0,0,1,.06,0l.12,0,0-.26h0s0,0,0-.06l0-.19-.18-.07A.12.12,0,0,1,356.72,186.32Z" transform="translate(-22.59 -18.5)"/><path class="cls-7" d="M350.18,186.8a.08.08,0,0,1-.1-.07.09.09,0,0,1,.06-.11,16.78,16.78,0,0,1,3.05,0,17.31,17.31,0,0,0,3,0,.08.08,0,0,1,.1.07c0,.06,0,.11-.06.12a18,18,0,0,1-3,0A17.43,17.43,0,0,0,350.18,186.8Z" transform="translate(-22.59 -18.5)"/><path class="cls-7" d="M350.18,186.51a.08.08,0,0,1-.1-.07.11.11,0,0,1,.06-.12,18.11,18.11,0,0,1,3.05,0,17.31,17.31,0,0,0,3,0,.08.08,0,0,1,.1.07.1.1,0,0,1-.06.12,18,18,0,0,1-3,0A17.43,17.43,0,0,0,350.18,186.51Z" transform="translate(-22.59 -18.5)"/><path class="cls-7" d="M350.18,187.1c-.05,0-.09,0-.1-.08a.09.09,0,0,1,.06-.11,17.07,17.07,0,0,1,3.05,0,18.44,18.44,0,0,0,3,0c.05,0,.09,0,.1.07a.09.09,0,0,1-.06.11,17,17,0,0,1-3,0A18.2,18.2,0,0,0,350.18,187.1Z" transform="translate(-22.59 -18.5)"/><path class="cls-7" d="M350.59,187.3a.15.15,0,0,1,0,.2.11.11,0,0,1-.18,0l-.15-.2-.25-.11a.13.13,0,0,1-.08-.16h0l.05-.28-.06-.35a.15.15,0,0,1,.09-.16l.2-.07.19-.24a.11.11,0,0,1,.18,0,.14.14,0,0,1,0,.2l-.22.26a.09.09,0,0,1-.06,0l-.12.05,0,.25h0v.06l0,.19.18.08s0,0,.05,0l.17.22Z" transform="translate(-22.59 -18.5)"/><path class="cls-7" d="M357.7,185.19a.14.14,0,0,1,0,.28h-6.1a.14.14,0,0,1,0-.28Zm-6.1-1.1a.14.14,0,0,1,0-.28h6.1a.14.14,0,0,1,0,.28Z" transform="translate(-22.59 -18.5)"/><path class="cls-7" d="M357.81,183.86l.15.19.25.11a.14.14,0,0,1,.08.16h0l-.06.28.06.35a.14.14,0,0,1-.09.17l-.19.07-.2.23a.12.12,0,0,1-.18,0v0l-.15-.19-.25-.1a.16.16,0,0,1-.08-.17h0l.05-.28-.06-.35a.15.15,0,0,1,.09-.16l.2-.07.2-.24a.11.11,0,0,1,.18,0Zm0,.41-.08-.11-.12.15-.06,0-.13.05,0,.25h0s0,0,0,.06l0,.19.18.08a.07.07,0,0,1,.05,0l.08.1.13-.14a.07.07,0,0,1,.05,0l.13-.05,0-.26h0s0,0,0,0l0-.19-.18-.08Z" transform="translate(-22.59 -18.5)"/><path class="cls-7" d="M351.25,184.74c-.05,0-.09,0-.1-.07a.09.09,0,0,1,.06-.11,17.07,17.07,0,0,1,3.05,0,18.46,18.46,0,0,0,3,0c.05,0,.09,0,.1.07a.09.09,0,0,1-.06.11,17,17,0,0,1-3,0A18.57,18.57,0,0,0,351.25,184.74Z" transform="translate(-22.59 -18.5)"/><path class="cls-7" d="M351.25,184.45a.08.08,0,0,1-.1-.07.09.09,0,0,1,.06-.11,16.78,16.78,0,0,1,3.05,0,17.34,17.34,0,0,0,3,0,.08.08,0,0,1,.1.07c0,.06,0,.11-.06.12a18,18,0,0,1-3,0A17.43,17.43,0,0,0,351.25,184.45Z" transform="translate(-22.59 -18.5)"/><path class="cls-7" d="M351.25,185a.08.08,0,0,1-.1-.07.1.1,0,0,1,.06-.12,18.11,18.11,0,0,1,3.05,0,17.34,17.34,0,0,0,3,0,.08.08,0,0,1,.1.07.09.09,0,0,1-.06.11,16.69,16.69,0,0,1-3,0A17.43,17.43,0,0,0,351.25,185Z" transform="translate(-22.59 -18.5)"/><path class="cls-7" d="M351.66,185.24a.15.15,0,0,1,0,.2.12.12,0,0,1-.18,0l-.16-.2-.25-.11A.15.15,0,0,1,351,185h0l.06-.28-.06-.35a.15.15,0,0,1,.09-.17l.2-.07.19-.23a.12.12,0,0,1,.18,0,.15.15,0,0,1,0,.21l-.22.25a.1.1,0,0,1-.06.05l-.12,0,0,.26h0v.05l0,.2.18.07.05.05.17.22Z" transform="translate(-22.59 -18.5)"/><path class="cls-7" d="M354.45,188.81a.16.16,0,0,1,.08-.19.14.14,0,0,1,.17.09l0,.15a.77.77,0,0,1,0,.15,1.91,1.91,0,0,1-.63,1.47,2.47,2.47,0,0,1-1.65.5,2.52,2.52,0,0,1-1.66-.5,1.9,1.9,0,0,1-.62-1.47s0-.09,0-.14l0-.13a.13.13,0,0,1,.16-.1.14.14,0,0,1,.08.18s0,.06,0,.09V189a1.63,1.63,0,0,0,.52,1.25,2.78,2.78,0,0,0,3,0,1.63,1.63,0,0,0,.52-1.25s0-.07,0-.1l0-.1Z" transform="translate(-22.59 -18.5)"/><path class="cls-7" d="M352.46,188.11a6.31,6.31,0,0,1,1.5.15c.44.1.72.27.72.48s-.28.38-.72.48a6.88,6.88,0,0,1-1.5.15,6.4,6.4,0,0,1-1.51-.15c-.44-.1-.71-.27-.71-.48s.27-.38.71-.48A7,7,0,0,1,352.46,188.11Zm1.46.42a7.29,7.29,0,0,0-1.46-.14,7.21,7.21,0,0,0-1.46.14c-.31.07-.51.15-.51.2s.2.14.51.21a7.23,7.23,0,0,0,1.46.13,7.37,7.37,0,0,0,1.46-.13c.31-.07.51-.15.51-.21S354.23,188.6,353.92,188.53Z" transform="translate(-22.59 -18.5)"/><path class="cls-7" d="M351.16,189a.11.11,0,0,1,0,.13.08.08,0,0,1-.11,0,.22.22,0,0,1-.09-.07A.16.16,0,0,1,351,189c0-.14.19-.24.49-.3a5,5,0,0,1,1-.09,5.58,5.58,0,0,1,1,.09c.31.06.49.16.49.3a.15.15,0,0,1-.07.13.36.36,0,0,1-.12.08.09.09,0,0,1-.11,0,.11.11,0,0,1,0-.13s.07,0,.08-.05a1.28,1.28,0,0,0-.34-.1,5.34,5.34,0,0,0-1-.08,5.53,5.53,0,0,0-1,.08,1,1,0,0,0-.34.1l0,0Zm2.64,0Z" transform="translate(-22.59 -18.5)"/><path class="cls-5" d="M348.3,238.49a5.37,5.37,0,1,1-5.37-5.37,5.37,5.37,0,0,1,5.37,5.37" transform="translate(-22.59 -18.5)"/><path class="cls-6" d="M344.05,236.16h2a.29.29,0,0,1,.29.28v1.28a.29.29,0,0,1-.29.29h-.28v3a.29.29,0,0,1-.29.29h-5.12a.29.29,0,0,1-.28-.29v-3h-.29a.29.29,0,0,1-.28-.29v-1.28a.29.29,0,0,1,.28-.28m.15.43v1h2.77v-1Zm3.2,0v1h2.77v-1Zm-.43,1.42h-2.21v2.84h2.21Zm.43,2.84V238h2.2v2.84Z" transform="translate(-22.59 -18.5)"/><g id="issue_de_secours-3" data-name="issue de secours"><path class="cls-7" d="M216.69,333.13l2-.75a.28.28,0,0,0,.17-.35l-.13-.43a.22.22,0,0,0-.31-.15l-.66.26,1.11-2.24a.26.26,0,0,0-.1-.34l-.39-.19a.24.24,0,0,0-.33.12l-1.12,2.27-.21-.7a.22.22,0,0,0-.31-.16l-.42.16a.28.28,0,0,0-.17.35l.59,2A.22.22,0,0,0,216.69,333.13Z" transform="translate(-22.59 -18.5)"/><path class="cls-7" d="M211,329c-.23.61-.54,1.34-.71,1.71a16.5,16.5,0,0,1-2.26-.22.63.63,0,0,0-.73.49.61.61,0,0,0,.52.68l1.4.18a9.6,9.6,0,0,0,1,.06c.61,0,1-.1,1.13-.42a18.18,18.18,0,0,0,.74-1.71l-.78-.49A1.24,1.24,0,0,1,211,329Z" transform="translate(-22.59 -18.5)"/><path class="cls-7" d="M213.74,329a9.89,9.89,0,0,1,1.38-2.35,3.11,3.11,0,0,0,1.23.28l.36,0a6.63,6.63,0,0,0,2-1,.45.45,0,0,0,.1-.65.54.54,0,0,0-.7-.09,5.42,5.42,0,0,1-1.54.82,2.19,2.19,0,0,1-1.41-.38c-.24-.12-.73-.43-1-.57a3.37,3.37,0,0,0-3,.28,9.94,9.94,0,0,0-1.42,1.49.43.43,0,0,0,.11.63.55.55,0,0,0,.29.09.5.5,0,0,0,.4-.19,8.3,8.3,0,0,1,1.19-1.28,2.16,2.16,0,0,1,.72-.28,7.4,7.4,0,0,0-1.24,2.36c-.12.58.15.78.25.85s2.17,1.33,2.44,1.62a26,26,0,0,1-.82,2.6.59.59,0,0,0,.41.75.75.75,0,0,0,.21,0,.61.61,0,0,0,.6-.4,16.64,16.64,0,0,0,.91-3.1C215.21,330.05,214.75,329.65,213.74,329Z" transform="translate(-22.59 -18.5)"/><ellipse class="cls-7" cx="192.8" cy="305.37" rx="1.37" ry="1.27"/></g><circle class="cls-5" cx="332.45" cy="238.33" r="5.37"/><path class="cls-4" d="M357.72,260.93h-5.35a.16.16,0,0,1-.16-.16v-3.49l-.11.11a.14.14,0,0,1-.16,0,12.34,12.34,0,0,1-1.57-1.44.17.17,0,0,1,0-.17,21,21,0,0,1,1.56-2,4.18,4.18,0,0,1,2-1,.14.14,0,0,1,.12,0,1.88,1.88,0,0,0,1,.24,1.84,1.84,0,0,0,1-.24.15.15,0,0,1,.13,0,4.16,4.16,0,0,1,2,1,18.45,18.45,0,0,1,1.56,2,.14.14,0,0,1,0,.17,12.32,12.32,0,0,1-1.56,1.44.16.16,0,0,1-.17,0l-.11-.11v3.49A.16.16,0,0,1,357.72,260.93Zm-5.19-.31h5v-3.71a.15.15,0,0,1,.26-.11l.29.29a16.69,16.69,0,0,0,1.3-1.23A23.59,23.59,0,0,0,358,254a3.8,3.8,0,0,0-1.79-.92,2.26,2.26,0,0,1-1.12.26,2.3,2.3,0,0,1-1.13-.26,3.82,3.82,0,0,0-1.78.92c-.61.73-1.27,1.54-1.47,1.87.52.52,1.08,1.06,1.3,1.23l.29-.29a.17.17,0,0,1,.17,0,.16.16,0,0,1,.1.14Z" transform="translate(-22.59 -18.5)"/><path class="cls-4" d="M355.05,254.26a1.22,1.22,0,0,1-1-.39,1.29,1.29,0,0,1-.26-1,.16.16,0,0,1,.09-.12.14.14,0,0,1,.15,0,1.88,1.88,0,0,0,1,.24,1.84,1.84,0,0,0,1-.24.16.16,0,0,1,.16,0,.19.19,0,0,1,.09.12,1.39,1.39,0,0,1-.26,1A1.24,1.24,0,0,1,355.05,254.26Zm-.95-1.1a.85.85,0,0,0,.2.51.94.94,0,0,0,.75.28,1,1,0,0,0,.75-.28.83.83,0,0,0,.19-.51,2.39,2.39,0,0,1-.94.17A2.48,2.48,0,0,1,354.1,253.16Z" transform="translate(-22.59 -18.5)"/><path class="cls-4" d="M358.1,257.44a.16.16,0,0,1-.11-.05l-.37-.36a.17.17,0,0,1-.05-.12v-2.38s0-.64.46-.79a.14.14,0,0,1,.16,0,18.45,18.45,0,0,1,1.56,2,.14.14,0,0,1,0,.17,12.32,12.32,0,0,1-1.56,1.44Zm-.22-.59.24.24a16.69,16.69,0,0,0,1.3-1.23c-.19-.31-.8-1.07-1.38-1.77a.72.72,0,0,0-.16.44Z" transform="translate(-22.59 -18.5)"/><path class="cls-4" d="M352,257.44h-.05a12.34,12.34,0,0,1-1.57-1.44.17.17,0,0,1,0-.17,21,21,0,0,1,1.56-2,.16.16,0,0,1,.17,0c.45.15.46.77.46.79v2.38a.17.17,0,0,1,0,.12l-.38.36A.16.16,0,0,1,352,257.44Zm-1.32-1.58c.52.52,1.08,1.06,1.3,1.23l.24-.24v-2.32a.69.69,0,0,0-.15-.44A22.14,22.14,0,0,0,350.67,255.86Z" transform="translate(-22.59 -18.5)"/><path class="cls-4" d="M352,257.44h-.05a12.34,12.34,0,0,1-1.57-1.44.17.17,0,0,1,0-.17,4.08,4.08,0,0,1,.43-.63.13.13,0,0,1,.11-.06.13.13,0,0,1,.12.05c.36.37.91.92,1.48,1.46a.16.16,0,0,1,0,.11v.16a.17.17,0,0,1,0,.12l-.38.36A.16.16,0,0,1,352,257.44Zm-1.32-1.58c.52.52,1.08,1.06,1.3,1.23l.24-.24v0c-.49-.47-1-.94-1.3-1.3Z" transform="translate(-22.59 -18.5)"/><path class="cls-4" d="M358.1,257.44a.16.16,0,0,1-.11-.05l-.37-.36a.17.17,0,0,1-.05-.12v-.16a.16.16,0,0,1,.05-.11c.57-.54,1.11-1.09,1.47-1.46a.15.15,0,0,1,.12-.05.14.14,0,0,1,.12.06,3.2,3.2,0,0,1,.42.63.14.14,0,0,1,0,.17,12.32,12.32,0,0,1-1.56,1.44Zm-.22-.59.24.24a16.69,16.69,0,0,0,1.3-1.23c0-.07-.11-.17-.23-.34-.35.36-.82.83-1.31,1.3v0Z" transform="translate(-22.59 -18.5)"/><path class="cls-5" d="M309.68,193.21a5.38,5.38,0,1,0,5.33,5.42A5.39,5.39,0,0,0,309.68,193.21Z" transform="translate(-22.59 -18.5)"/><path class="cls-7" d="M313,196.39c-.11-.57-.71-.78-1.12-.86a1.09,1.09,0,0,1,0,.26,1.06,1.06,0,0,1-.12.5c.23.06.44.15.46.24s0,.09,0,.11a1.36,1.36,0,0,1-.9.28h-1a1.41,1.41,0,0,1-.91-.28.1.1,0,0,1,0-.11c0-.1.23-.18.46-.24a1,1,0,0,1-.13-.5.78.78,0,0,1,0-.26c-.42.08-1,.29-1.12.86a.86.86,0,0,0,.18.74,1.75,1.75,0,0,0,1.05.5c-.1.28-.29.86-.44,1.35-.41,0-1.11,0-1.38,0a.52.52,0,0,0-.39.17,3.14,3.14,0,0,0-.37,1.94l-.69.36a.44.44,0,0,0-.19.6.43.43,0,0,0,.4.24.35.35,0,0,0,.2-.05l3.17-1.65a1.28,1.28,0,0,0,.72-.66c.18-.43.6-1.77.75-2.27a1.92,1.92,0,0,0,1.18-.52A.86.86,0,0,0,313,196.39Zm-4.82,4.23a5.11,5.11,0,0,1,.09-.76l1.33,0Z" transform="translate(-22.59 -18.5)"/><circle class="cls-7" cx="288.17" cy="177.29" r="0.89"/><path class="cls-5" d="M28.5,126.94a.16.16,0,0,1-.16.16.16.16,0,0,1-.17-.16.16.16,0,0,1,.17-.17A.16.16,0,0,1,28.5,126.94Zm4.47.92V128a.58.58,0,0,1-.57.57h0a.43.43,0,0,1-.19,0,4.59,4.59,0,0,1-.24.5c.17,0,.46.11.46.33H32v.45h.34a.11.11,0,0,1,.12.11V130a.58.58,0,0,1-1.15,0h0v-.09a4.26,4.26,0,0,1-.74.59c.17,0,.4.12.4.32h-.46v.44h.35a.11.11,0,0,1,.11.12v.11a.58.58,0,0,1-.57.57.57.57,0,0,1-.57-.57h0v-.11a.11.11,0,0,1,.11-.12h.35v-.44h-.35l-.34.12.27,1.66a.17.17,0,0,1-.14.19H27a.18.18,0,0,1-.17-.17v0l.27-1.66-.34-.12h-.35v.44h.35a.11.11,0,0,1,.11.12v.11a.57.57,0,0,1-.57.57.58.58,0,0,1-.57-.57h0v-.11a.11.11,0,0,1,.11-.12h.35v-.44h-.46c0-.2.23-.29.4-.32a4.26,4.26,0,0,1-.74-.59V130a.58.58,0,0,1-1.15,0h0v-.11a.11.11,0,0,1,.12-.11h.34v-.45h-.46c0-.22.29-.3.46-.33a4.59,4.59,0,0,1-.24-.5.43.43,0,0,1-.19,0,.58.58,0,0,1-.57-.57h0v-.11a.11.11,0,0,1,.11-.12h.35v-.44H23.7c0-.23.29-.31.46-.33v0a3.94,3.94,0,0,1,.1-.9.41.41,0,0,1,0-.11h0v-.12a.12.12,0,0,1,.1-.11,3.29,3.29,0,0,1,.16-.44h-.27c0-.22.27-.3.44-.33a4.17,4.17,0,0,1,1.08-1.28.46.46,0,0,1,.23-.16,4.14,4.14,0,0,1,4.69,0,.46.46,0,0,1,.23.16A4.17,4.17,0,0,1,32,124.94c.17,0,.44.11.44.33h-.27a3.29,3.29,0,0,1,.16.44.13.13,0,0,1,.11.11v.12a.43.43,0,0,1,0,.11,3.94,3.94,0,0,1,.1.9h0c.17,0,.46.11.46.34h-.46v.44h.35a.11.11,0,0,1,.11.12Zm-.88-.12a3.11,3.11,0,0,0,.07-.44h-.33a.29.29,0,0,1,.16-.24H30.67a2.29,2.29,0,0,1-.26,1l1.31.75a3.48,3.48,0,0,0,.21-.48.53.53,0,0,1-.1-.32h0v-.11a.11.11,0,0,1,.11-.12Zm-2.6,1a2.15,2.15,0,0,0,.62-.62l-1.1-.63.1.59Zm-.28,0,0,.18.06,0Zm1-.77a2.24,2.24,0,0,0,.23-.85H29l0,.13Zm-2.66.15.1-.59-1.1.63a2.15,2.15,0,0,0,.62.62Zm-.18.77.06,0,0-.18Zm.32-1.64,0-.13H26.23a2.06,2.06,0,0,0,.22.85Zm-2.86.67V128a.53.53,0,0,1-.1.32,3.48,3.48,0,0,0,.21.48l1.31-.75a2.29,2.29,0,0,1-.26-1H24.68a.29.29,0,0,1,.16.24h-.33a3.11,3.11,0,0,0,.07.44h.15A.11.11,0,0,1,24.84,127.86Zm-.34-1H26a2.33,2.33,0,0,1,.26-1l-1.06-.61h-.27v.44h.34a.11.11,0,0,1,.12.11v.12a.58.58,0,0,1-.57.57h0a.6.6,0,0,1-.29-.08A2.73,2.73,0,0,0,24.5,126.84Zm.2-1.13h0Zm3.06,1.13v-.08L26.45,126a2.1,2.1,0,0,0-.22.85Zm0-.32,0-.15a.06.06,0,0,1,0,0l-.67-1.15a2.15,2.15,0,0,0-.62.62Zm.24-.29h.17v-1.39a2.07,2.07,0,0,0-.84.23Zm.17-1.61v-.16a.57.57,0,0,1-.46-.56h0v-.11a.11.11,0,0,1,.12-.11h.34v-.44h-.46a.29.29,0,0,1,0-.09,3.79,3.79,0,0,0-1.14.36c.12,0,.23.13.23.27h-.24l.63,1.09A2.32,2.32,0,0,1,28.22,124.62Zm-1.81-.4h.22l-.22-.37Zm2.5-.43v.11a.57.57,0,0,1-.46.56v.16a2.32,2.32,0,0,1,1,.25l.63-1.09H29.8c0-.14.11-.22.23-.27a3.79,3.79,0,0,0-1.14-.36.31.31,0,0,1,0,.08h-.46v.45h.34A.11.11,0,0,1,28.91,123.79Zm1.13.43h.22v-.37Zm-1.59,2h.17l.67-1.16a2.07,2.07,0,0,0-.84-.23Zm.37.1a.06.06,0,0,1,0,0l0,.15,1.25-.72a2.15,2.15,0,0,0-.62-.62Zm.08.43v.08h1.54a2.29,2.29,0,0,0-.23-.85ZM32,125.71Zm-1.56.17a2.33,2.33,0,0,1,.26,1h1.5a2.73,2.73,0,0,0,0-.41.6.6,0,0,1-.29.08.58.58,0,0,1-.57-.57h0v-.12a.11.11,0,0,1,.12-.11h.34v-.44h-.26Zm.09-2.1h0v.44h.35a.11.11,0,0,1,.11.12v.11a.58.58,0,0,1-.57.57.57.57,0,0,1-.55-.42l-.22.39a2.34,2.34,0,0,1,.7.7l1.3-.75A3.81,3.81,0,0,0,30.5,123.78Zm-5.43,1.16,1.3.75a2.34,2.34,0,0,1,.7-.7l-.22-.39a.57.57,0,0,1-1.12-.15h0v-.11a.11.11,0,0,1,.11-.12h.35v-.44h0A3.81,3.81,0,0,0,25.07,124.94Zm.19,4.84a3.39,3.39,0,0,1-.33-.42v.42Zm1.06.44.75-1.3a2.37,2.37,0,0,1-.7-.71l-1.3.76.05.08c.14,0,.27.13.27.28h-.07A4,4,0,0,0,26.32,130.22Zm.83.39.25-1.52-.14-.06-.75,1.3A5.17,5.17,0,0,0,27.15,130.61Zm2.33,1.85-.95-5.9h-.39l-.95,5.9Zm.68-2.13-.75-1.3-.14.06.25,1.52A5.17,5.17,0,0,0,30.16,130.33Zm1.19-1h-.07c0-.15.14-.24.27-.28l.05-.08-1.3-.76a2.37,2.37,0,0,1-.7.71l.75,1.3A4,4,0,0,0,31.35,129.33Zm.39,0a3.39,3.39,0,0,1-.33.42h.33Z" transform="translate(-22.59 -18.5)"/></g><g id="Scènes"><rect id="FONTENELLES" class="cls-4" x="61.29" y="180.97" width="46.87" height="20.18" transform="translate(-121.93 73.55) rotate(-37.81)"/><rect id="METROPLIS" class="cls-4" x="251.16" y="376.67" width="64.2" height="20.18" transform="translate(-36.65 -7.8) rotate(-2.11)"/><rect id="cable_madine" data-name="cable madine" class="cls-4" x="452.62" y="218.14" width="37.88" height="1.44" transform="translate(402.73 -317.45) rotate(60)"/><rect id="RÉGIE_MADINE" data-name="RÉGIE MADINE" class="cls-4" x="453.96" y="195.86" width="12.98" height="7.55" transform="translate(-60.72 238.47) rotate(-30)"/><rect id="MADINE" class="cls-4" x="453.01" y="232.97" width="70.31" height="29.11" transform="translate(-78.46 289.09) rotate(-33.19)"/><rect class="cls-4" x="85.93" y="210.51" width="37.88" height="1.44" transform="translate(157.48 -30.78) rotate(45)"/><rect class="cls-4" x="113.73" y="223.21" width="12.98" height="7.55" transform="translate(-144.37 122.4) rotate(-42.51)"/><rect class="cls-4" x="262.21" y="357.32" width="37.88" height="1.44" transform="translate(605.99 45.39) rotate(87.89)"/><rect class="cls-4" x="272.89" y="333.38" width="12.98" height="7.55" transform="translate(-34.83 -7.98) rotate(-2.11)"/><text class="cls-24" transform="translate(248.07 367.49) rotate(-2.26)">S<tspan class="cls-25" x="5.12" y="0">C</tspan><tspan x="10.3" y="0">ÈNE</tspan><tspan x="-12.74" y="9.6">MÉT</tspan><tspan class="cls-17" x="3.39" y="9.6">R</tspan><tspan class="cls-26" x="8.51" y="9.6">OPO</tspan><tspan x="25.98" y="9.6">LIS</tspan></text><text class="cls-27" transform="translate(52.9 177.31) rotate(-37.49)">S<tspan class="cls-28" x="3.84" y="0">C</tspan><tspan class="cls-29" x="7.73" y="0">ÈNE </tspan><tspan class="cls-28" x="-9.91" y="7.2">FO</tspan><tspan x="-2.14" y="7.2">NTENELLES</tspan></text><text class="cls-30" transform="translate(449.01 237.5) rotate(-33.13)">S<tspan class="cls-31" x="7.04" y="0">C</tspan><tspan class="cls-32" x="14.17" y="0">ÈNE </tspan><tspan class="cls-33" x="-2.68" y="13.2">M</tspan><tspan x="7.08" y="13.2">A</tspan><tspan class="cls-31" x="15" y="13.2">D</tspan><tspan x="22.66" y="13.2">INE</tspan></text></g><g id="LÉGENDE"><text class="cls-34" transform="translate(22.49 26.4)">BAR À VINS , BULLES ; <tspan class="cls-28" x="67.01" y="0">C</tspan><tspan x="70.9" y="0">O</tspan><tspan class="cls-25" x="75.6" y="0">C</tspan><tspan x="79.49" y="0">K</tspan><tspan class="cls-35" x="83.71" y="0">T</tspan><tspan x="86.78" y="0">AILS</tspan></text><text class="cls-34" transform="translate(22.49 40.18)"><tspan class="cls-28">R</tspan><tspan x="3.98" y="0">E</tspan><tspan class="cls-36" x="7.25" y="0">S</tspan><tspan class="cls-37" x="10.99" y="0">T</tspan><tspan x="14.06" y="0">AUR</tspan><tspan class="cls-37" x="26.74" y="0">A</tspan><tspan x="30.58" y="0">T</tspan><tspan class="cls-28" x="34.13" y="0">IO</tspan><tspan x="40.56" y="0">N</tspan></text><text class="cls-34" transform="translate(22.56 54.46)">SN<tspan class="cls-17" x="8.35" y="0">A</tspan><tspan class="cls-28" x="12.48" y="0">CK</tspan><tspan x="20.54" y="0">I</tspan><tspan class="cls-28" x="22.37" y="0">N</tspan><tspan x="26.83" y="0">G S</tspan><tspan class="cls-28" x="36.91" y="0">UCR</tspan><tspan x="49.06" y="0">É</tspan></text><text class="cls-34" transform="translate(22.47 68.64)">EX<tspan class="cls-28" x="7.68" y="0">P</tspan><tspan class="cls-36" x="11.47" y="0">OS</tspan><tspan x="19.82" y="0">ANTS</tspan></text><text class="cls-34" transform="translate(22.7 82.84)">ME<tspan class="cls-17" x="8.54" y="0">R</tspan><tspan class="cls-28" x="12.38" y="0">C</tspan><tspan x="16.27" y="0">H ESF</tspan></text><text class="cls-34" transform="translate(163.95 12.75)"><tspan class="cls-28">PO</tspan><tspan class="cls-38" x="8.45" y="0">INT IN</tspan><tspan class="cls-25" x="26.4" y="0">F</tspan><tspan class="cls-13" x="29.52" y="0">O</tspan><tspan x="34.13" y="0">S</tspan></text><text class="cls-34" transform="translate(163.99 26.23)"><tspan class="cls-36">P</tspan><tspan class="cls-39" x="3.74" y="0">L</tspan><tspan class="cls-37" x="7.1" y="0">A</tspan><tspan x="10.94" y="0">TE</tspan><tspan class="cls-28" x="17.76" y="0">FO</tspan><tspan x="25.54" y="0">RME PMR</tspan></text><text class="cls-34" transform="translate(163.96 40.17)"><tspan class="cls-28">ÉC</tspan><tspan x="7.1" y="0">RAN </tspan><tspan class="cls-28" x="21.7" y="0">G</tspan><tspan x="26.16" y="0">ÉANT</tspan></text><text class="cls-40" transform="translate(163.96 54.35)">PO<tspan class="cls-38" x="8.45" y="0">INT D’EAU</tspan></text><text class="cls-34" transform="translate(164.16 68.53)"><tspan class="cls-17">T</tspan><tspan class="cls-28" x="3.36" y="0">O</tspan><tspan x="8.02" y="0">ILETTES</tspan></text><text class="cls-34" transform="translate(163.96 96.92)">ISSUE <tspan class="cls-28" x="18.82" y="0">D</tspan><tspan x="22.99" y="0">E S</tspan><tspan class="cls-25" x="31.82" y="0">ECO</tspan><tspan x="43.58" y="0">U</tspan><tspan class="cls-36" x="47.9" y="0">R</tspan><tspan x="51.84" y="0">S</tspan></text><circle class="cls-5" cx="5.74" cy="80.85" r="5.37"/><path class="cls-7" d="M31,103.45H25.66a.16.16,0,0,1-.16-.16V99.8l-.11.11a.16.16,0,0,1-.16,0,12.34,12.34,0,0,1-1.57-1.44.15.15,0,0,1,0-.17,19.82,19.82,0,0,1,1.56-2,4.18,4.18,0,0,1,2-1,.17.17,0,0,1,.12,0,2.15,2.15,0,0,0,2,0,.17.17,0,0,1,.12,0,4.14,4.14,0,0,1,2,1,18.45,18.45,0,0,1,1.56,2,.14.14,0,0,1,0,.17A12.34,12.34,0,0,1,31.44,100a.16.16,0,0,1-.16,0l-.11-.11v3.49A.16.16,0,0,1,31,103.45Zm-5.2-.31h5.05V99.43a.14.14,0,0,1,.09-.14.17.17,0,0,1,.17,0l.29.28a15.94,15.94,0,0,0,1.3-1.22,20.49,20.49,0,0,0-1.47-1.87,3.68,3.68,0,0,0-1.78-.92,2.56,2.56,0,0,1-2.25,0,3.68,3.68,0,0,0-1.78.92A20.49,20.49,0,0,0,24,98.38c.51.52,1.08,1.05,1.3,1.22l.29-.28a.17.17,0,0,1,.17,0,.14.14,0,0,1,.09.14Z" transform="translate(-22.59 -18.5)"/><path class="cls-7" d="M28.34,96.78a1.22,1.22,0,0,1-1-.39,1.37,1.37,0,0,1-.27-1,.15.15,0,0,1,.1-.12.16.16,0,0,1,.15,0,2.15,2.15,0,0,0,2,0,.16.16,0,0,1,.15,0,.15.15,0,0,1,.1.12,1.37,1.37,0,0,1-.27,1A1.2,1.2,0,0,1,28.34,96.78Zm-.95-1.1a.92.92,0,0,0,.19.51,1.16,1.16,0,0,0,1.51,0,.92.92,0,0,0,.19-.51,2.71,2.71,0,0,1-1.89,0Z" transform="translate(-22.59 -18.5)"/><path class="cls-7" d="M31.39,100a.16.16,0,0,1-.11,0l-.38-.37a.12.12,0,0,1,0-.11V97.05s0-.65.46-.79a.15.15,0,0,1,.16,0,18.45,18.45,0,0,1,1.56,2,.14.14,0,0,1,0,.17A12.34,12.34,0,0,1,31.44,100Zm-.22-.59.24.23c.22-.17.79-.7,1.3-1.22a19,19,0,0,0-1.39-1.77.76.76,0,0,0-.15.44Z" transform="translate(-22.59 -18.5)"/><path class="cls-7" d="M25.28,100h-.05a12.34,12.34,0,0,1-1.57-1.44.15.15,0,0,1,0-.17,19.82,19.82,0,0,1,1.56-2,.16.16,0,0,1,.17,0c.45.14.45.77.45.79v2.38a.14.14,0,0,1,0,.11l-.38.37A.16.16,0,0,1,25.28,100ZM24,98.38c.51.52,1.08,1.05,1.3,1.22l.24-.23V97.05a.69.69,0,0,0-.15-.44A19,19,0,0,0,24,98.38Z" transform="translate(-22.59 -18.5)"/><path class="cls-7" d="M25.28,100h-.05a12.34,12.34,0,0,1-1.57-1.44.15.15,0,0,1,0-.17,4.08,4.08,0,0,1,.43-.63.11.11,0,0,1,.11-.06.13.13,0,0,1,.12,0c.36.38.9.93,1.47,1.46a.15.15,0,0,1,0,.12v.16a.14.14,0,0,1,0,.11l-.38.37A.16.16,0,0,1,25.28,100ZM24,98.38c.51.52,1.08,1.05,1.3,1.22l.24-.23v0c-.49-.47-1-.94-1.31-1.3A3.38,3.38,0,0,0,24,98.38Z" transform="translate(-22.59 -18.5)"/><path class="cls-7" d="M31.39,100a.16.16,0,0,1-.11,0l-.38-.37a.12.12,0,0,1,0-.11v-.16a.15.15,0,0,1,.05-.12c.57-.53,1.11-1.08,1.47-1.46a.13.13,0,0,1,.12,0,.14.14,0,0,1,.12.06,4.59,4.59,0,0,1,.42.63.14.14,0,0,1,0,.17A12.34,12.34,0,0,1,31.44,100Zm-.22-.59.24.23c.22-.17.79-.7,1.3-1.22a3.38,3.38,0,0,0-.23-.34c-.35.36-.82.83-1.31,1.3v0Z" transform="translate(-22.59 -18.5)"/><text class="cls-34" transform="translate(22.49 12.24)">BAR</text><circle class="cls-5" cx="5.89" cy="94.89" r="5.37"/><path class="cls-4" d="M31.16,117.49H25.81a.16.16,0,0,1-.16-.15v-3.5l-.11.12a.17.17,0,0,1-.17,0,13.75,13.75,0,0,1-1.56-1.43.14.14,0,0,1,0-.17,17.45,17.45,0,0,1,1.56-2,4.16,4.16,0,0,1,2-1,.15.15,0,0,1,.13,0,1.84,1.84,0,0,0,1,.24,1.88,1.88,0,0,0,1-.24.14.14,0,0,1,.12,0,4.18,4.18,0,0,1,2,1,17.62,17.62,0,0,1,1.56,2,.16.16,0,0,1,0,.17A13,13,0,0,1,31.59,114a.16.16,0,0,1-.16,0l-.11-.12v3.5A.16.16,0,0,1,31.16,117.49Zm-5.2-.31H31v-3.7a.16.16,0,0,1,.09-.15.16.16,0,0,1,.17,0l.29.28c.22-.17.78-.71,1.3-1.23-.2-.33-.86-1.14-1.47-1.87a3.77,3.77,0,0,0-1.78-.92,2.56,2.56,0,0,1-2.25,0,3.77,3.77,0,0,0-1.78.92,22,22,0,0,0-1.47,1.87,16.69,16.69,0,0,0,1.3,1.23l.29-.28a.15.15,0,0,1,.17,0,.17.17,0,0,1,.09.15Z" transform="translate(-22.59 -18.5)"/><path class="cls-4" d="M28.48,110.82a1.24,1.24,0,0,1-1-.39,1.39,1.39,0,0,1-.26-1,.17.17,0,0,1,.1-.12.16.16,0,0,1,.15,0,1.84,1.84,0,0,0,1,.24,1.88,1.88,0,0,0,1-.24.16.16,0,0,1,.15,0,.14.14,0,0,1,.09.12,1.29,1.29,0,0,1-.26,1A1.22,1.22,0,0,1,28.48,110.82Zm-.94-1.1a.87.87,0,0,0,.19.51.92.92,0,0,0,.75.28,1,1,0,0,0,.76-.28.87.87,0,0,0,.19-.51,2.71,2.71,0,0,1-1.89,0Z" transform="translate(-22.59 -18.5)"/><path class="cls-4" d="M31.54,114a.21.21,0,0,1-.11,0l-.38-.37a.15.15,0,0,1,0-.11V111.1s0-.65.45-.8a.18.18,0,0,1,.17,0,17.62,17.62,0,0,1,1.56,2,.16.16,0,0,1,0,.17A13,13,0,0,1,31.59,114Zm-.22-.59.24.24c.22-.17.78-.71,1.3-1.23a22.14,22.14,0,0,0-1.39-1.77.69.69,0,0,0-.15.45Z" transform="translate(-22.59 -18.5)"/><path class="cls-4" d="M25.43,114h-.06a13.75,13.75,0,0,1-1.56-1.43.14.14,0,0,1,0-.17,17.45,17.45,0,0,1,1.56-2,.16.16,0,0,1,.16,0c.46.15.46.77.46.8v2.38a.15.15,0,0,1,0,.11l-.38.37A.21.21,0,0,1,25.43,114Zm-1.32-1.58a16.69,16.69,0,0,0,1.3,1.23l.24-.24V111.1a.72.72,0,0,0-.16-.45C24.91,111.35,24.3,112.11,24.11,112.42Z" transform="translate(-22.59 -18.5)"/><path class="cls-4" d="M25.43,114h-.06a13.75,13.75,0,0,1-1.56-1.43.14.14,0,0,1,0-.17,3.71,3.71,0,0,1,.42-.64.17.17,0,0,1,.12-.06.18.18,0,0,1,.12,0c.36.37.9.92,1.47,1.46a.16.16,0,0,1,.05.11v.17a.15.15,0,0,1,0,.11l-.38.37A.21.21,0,0,1,25.43,114Zm-1.32-1.58a16.69,16.69,0,0,0,1.3,1.23l.24-.24v0c-.49-.47-1-.94-1.31-1.3C24.22,112.25,24.15,112.35,24.11,112.42Z" transform="translate(-22.59 -18.5)"/><path class="cls-4" d="M31.54,114a.21.21,0,0,1-.11,0l-.38-.37a.15.15,0,0,1,0-.11v-.17a.15.15,0,0,1,0-.11c.57-.54,1.12-1.09,1.48-1.46a.17.17,0,0,1,.12,0,.15.15,0,0,1,.11.06,4,4,0,0,1,.43.64.16.16,0,0,1,0,.17A13,13,0,0,1,31.59,114Zm-.22-.59.24.24c.22-.17.78-.71,1.3-1.23a3.43,3.43,0,0,0-.24-.34c-.34.36-.81.83-1.3,1.3v0Z" transform="translate(-22.59 -18.5)"/><text class="cls-34" transform="translate(22.68 96.92)">ME<tspan class="cls-17" x="8.54" y="0">R</tspan><tspan class="cls-28" x="12.38" y="0">C</tspan><tspan x="16.27" y="0">H A</tspan><tspan class="cls-41" x="26.64" y="0">R</tspan><tspan x="30.48" y="0">TI</tspan><tspan class="cls-13" x="35.86" y="0">S</tspan><tspan x="39.6" y="0">TES</tspan></text><path class="cls-42" d="M167.82,114.06c-.24.61-.55,1.34-.72,1.71a16.22,16.22,0,0,1-2.26-.21.64.64,0,0,0-.73.48.61.61,0,0,0,.52.68s.7.11,1.4.18c.39,0,.72.06,1,.06.6,0,.94-.1,1.12-.41a17.24,17.24,0,0,0,.74-1.72c-.18-.11-.75-.46-.78-.49A1,1,0,0,1,167.82,114.06Z" transform="translate(-22.59 -18.5)"/><path class="cls-42" d="M170.55,114.07a9.79,9.79,0,0,1,1.37-2.34,3.11,3.11,0,0,0,1.23.28c.13,0,.25,0,.36,0a6.17,6.17,0,0,0,2-1,.45.45,0,0,0,.1-.65.54.54,0,0,0-.7-.09,5.48,5.48,0,0,1-1.54.83,2.32,2.32,0,0,1-1.41-.38c-.23-.13-.73-.43-1-.57a3.3,3.3,0,0,0-2.95.28,9.3,9.3,0,0,0-1.41,1.48.42.42,0,0,0,.11.63.43.43,0,0,0,.28.09.47.47,0,0,0,.4-.19,7.87,7.87,0,0,1,1.2-1.28,2.32,2.32,0,0,1,.71-.28,7.61,7.61,0,0,0-1.24,2.36c-.12.58.16.79.25.85s2.17,1.33,2.44,1.62a26,26,0,0,1-.82,2.6.58.58,0,0,0,.41.75.51.51,0,0,0,.21,0,.62.62,0,0,0,.6-.41,16,16,0,0,0,.91-3.09C172,115.13,171.55,114.72,170.55,114.07Z" transform="translate(-22.59 -18.5)"/><ellipse class="cls-42" cx="149.6" cy="90.44" rx="1.37" ry="1.27"/><path class="cls-5" d="M169.92,94a5.37,5.37,0,1,0,5.34,5.41A5.38,5.38,0,0,0,169.92,94Z" transform="translate(-22.59 -18.5)"/><path class="cls-7" d="M173.21,97.15c-.11-.57-.71-.78-1.12-.86a1.15,1.15,0,0,1,0,.26,1.27,1.27,0,0,1-.12.51c.23,0,.44.14.45.24a.13.13,0,0,1,0,.11,1.42,1.42,0,0,1-.9.27h-1a1.44,1.44,0,0,1-.9-.27.1.1,0,0,1,0-.11c0-.1.22-.19.46-.24a1.07,1.07,0,0,1-.13-.51,1.22,1.22,0,0,1,0-.26c-.41.08-1,.29-1.12.86a.9.9,0,0,0,.19.74,1.67,1.67,0,0,0,1.05.5c-.1.28-.3.86-.44,1.36-.41,0-1.12,0-1.38,0a.56.56,0,0,0-.4.17,3.27,3.27,0,0,0-.36,1.95l-.69.36a.43.43,0,0,0-.19.59.44.44,0,0,0,.4.25.36.36,0,0,0,.2-.06l3.16-1.65a1.3,1.3,0,0,0,.73-.66c.17-.43.59-1.76.75-2.27a1.82,1.82,0,0,0,1.17-.52A.87.87,0,0,0,173.21,97.15Zm-4.82,4.23a4.2,4.2,0,0,1,.08-.76l1.33,0Z" transform="translate(-22.59 -18.5)"/><circle class="cls-7" cx="148.42" cy="78.05" r="0.89"/><text class="cls-34" transform="translate(163.93 82.86)">ES<tspan class="cls-43" x="7.1" y="0">P</tspan><tspan class="cls-17" x="10.61" y="0">A</tspan><tspan class="cls-25" x="14.74" y="0">C</tspan><tspan x="18.62" y="0">E </tspan><tspan class="cls-28" x="23.62" y="0">D</tspan><tspan x="27.79" y="0">ÉTENTE</tspan></text><path class="cls-5" d="M169.92,54.76a1.86,1.86,0,1,0,1.86,1.88A1.88,1.88,0,0,0,169.92,54.76Zm0,2.56a.71.71,0,0,1-.7-.7.69.69,0,0,1,.71-.69.68.68,0,0,1,.69.7A.69.69,0,0,1,169.9,57.32Z" transform="translate(-22.59 -18.5)"/><path class="cls-5" d="M169.94,51.25a5.38,5.38,0,1,0,5.34,5.41A5.37,5.37,0,0,0,169.94,51.25ZM169.89,59a6.22,6.22,0,0,1-4.7-2.38,5.9,5.9,0,0,1,9.43.07A6.27,6.27,0,0,1,169.89,59Z" transform="translate(-22.59 -18.5)"/><circle class="cls-5" cx="147.29" cy="24.23" r="5.37"/><path class="cls-7" d="M170.47,44.86a.32.32,0,0,0-.42.17,1.81,1.81,0,1,1-2.4-2.36.33.33,0,0,0,.18-.42.32.32,0,0,0-.42-.17h0a2.44,2.44,0,1,0,3.25,3.2.33.33,0,0,0-.16-.43Z" transform="translate(-22.59 -18.5)"/><path class="cls-7" d="M168.57,40.61a1,1,0,1,0-1-1,1,1,0,0,0,1,1Zm0-1.28a.32.32,0,0,1,0,.64.33.33,0,0,1-.33-.32h0a.33.33,0,0,1,.31-.33h0Z" transform="translate(-22.59 -18.5)"/><path class="cls-7" d="M173.78,45a.32.32,0,0,0-.43-.14h0l-.62.32-1.12-1.29a.32.32,0,0,0-.24-.11l-2.45,0,0-2.12,1.91,0a.32.32,0,0,0,.05-.64h-.05l-2.23,0a.32.32,0,0,0-.32.32h0l0,2.77a.32.32,0,0,0,.32.31h0l2.62,0,1.19,1.37a.28.28,0,0,0,.23.11.33.33,0,0,0,.14,0l.86-.43A.32.32,0,0,0,173.78,45Z" transform="translate(-22.59 -18.5)"/><circle class="cls-5" cx="5.59" cy="24.23" r="5.37"/><path class="cls-7" d="M31.82,40a.24.24,0,0,0-.15-.41h-7a.25.25,0,0,0-.15.41l3.21,3.63v2.76H26.9a.45.45,0,0,0-.43.48.46.46,0,0,0,.43.49h2.57a.46.46,0,0,0,.43-.49.45.45,0,0,0-.43-.48h-.85V43.67Zm-1.7.56-1.93,2.18L26.26,40.6Z" transform="translate(-22.59 -18.5)"/><circle class="cls-5" cx="5.59" cy="10.28" r="5.37"/><path class="cls-7" d="M27.18,24.45a1.43,1.43,0,0,1,.79.23l0,0h0a1.7,1.7,0,0,1,.31-.06h.09a1.34,1.34,0,0,1,.74.22l0,0h0a1.29,1.29,0,0,1,.51-.14h.09a1.31,1.31,0,0,1,1.31,1.31,1.34,1.34,0,0,1-.42,1v.45h.83a.75.75,0,0,1,.74.71v2.12a.74.74,0,0,1-.74.73h-.83v.84a.73.73,0,0,1-.71.73H26a.73.73,0,0,1-.73-.71v-5a1.08,1.08,0,0,1-.42-.86A1.1,1.1,0,0,1,26,25h.08v0a1.47,1.47,0,0,1,1-.51h.07Zm-1.57,2.66v4.78a.42.42,0,0,0,.4.42h4a.41.41,0,0,0,.4-.4V27.25l-.11.05-.05,0-.07,0h-.48l-.1,0h-.1a.16.16,0,0,1-.09,0h-.07l0,0h-.05l0,0,0,0,0,0h0l-.13.07-.05,0h0l-.06,0h-.53a1.61,1.61,0,0,1-.33-.06l-.05,0h0l0,0,0,0h0l-.09,0,0,0h0l-.07,0h-.17l-.23,0-.2,0H26.8l0,0h-.08l0,0h-.07l-.07,0,0,0-.06,0,0,0,0,0h-.08l-.07,0h-.54Zm1.15.8v3.14h-.31V27.91Zm.95,0v3.14h-.32V27.91Zm.94,0v3.14h-.31V27.91Zm.94,0v3.14h-.31V27.91Zm2-.11h-.83v.63h.62v1.68h-.62v.63h.83a.42.42,0,0,0,.42-.42h0v-2.1a.42.42,0,0,0-.42-.42Zm-.52.95h-.31V29.8h.31Zm-3.88-4a1.15,1.15,0,0,0-1,.55.83.83,0,0,0-.22,0,.79.79,0,0,0-.79.79.8.8,0,0,0,.5.73h.06l.07,0h.42l.11-.05,0,0,0,0,.12.1,0,0h0l.05,0,0,0,0,0,.11,0h.64l.2-.07a.61.61,0,0,0,.14-.07l0,0,0,0,.23.11,0,0h.4l.1,0h.2l.06,0,0,0h0a.76.76,0,0,0,.19-.12l0,0,0,0,.13.1,0,0h0a.42.42,0,0,0,.14.06h.1l.13,0h.51a1,1,0,1,0-1.07-1.66,1,1,0,0,0-.77-.34,1,1,0,0,0-.46.1A1.19,1.19,0,0,0,27.18,24.77Z" transform="translate(-22.59 -18.5)"/><circle class="cls-5" cx="147.29" cy="52.42" r="5.37"/><path class="cls-7" d="M171.73,75.16c0,.38-.71.77-1.84.77s-1.85-.39-1.85-.77.71-.76,1.85-.76S171.73,74.79,171.73,75.16Z" transform="translate(-22.59 -18.5)"/><path class="cls-7" d="M172.24,71.32l-.51,3.85H168l-.51-3.85a4.36,4.36,0,0,0,4.71,0Z" transform="translate(-22.59 -18.5)"/><path class="cls-7" d="M172.31,70.85l0,.09h0v0c-.17.44-1.18.77-2.39.77s-2.23-.33-2.4-.77v0h0v-.09Z" transform="translate(-22.59 -18.5)"/><path class="cls-7" d="M172.28,71c-.17.44-1.18.77-2.39.77s-2.23-.33-2.4-.77l.08-.13a1.07,1.07,0,0,1,.3-.23,4.3,4.3,0,0,1,2-.41,4.36,4.36,0,0,1,2,.41,1.18,1.18,0,0,1,.29.23A.46.46,0,0,1,172.28,71Z" transform="translate(-22.59 -18.5)"/><path class="cls-7" d="M172.31,70.85a.29.29,0,0,1,0,.09h0s0,0,0,0c-.17.44-1.18.77-2.39.77s-2.23-.33-2.4-.77c0,0,0,0,0,0h0a.28.28,0,0,1,0-.09.5.5,0,0,1,.19-.35,3.74,3.74,0,0,1,2.23-.55,3.79,3.79,0,0,1,2.23.55A.5.5,0,0,1,172.31,70.85Z" transform="translate(-22.59 -18.5)"/><path class="cls-7" d="M169.89,65.9c-1.63,0-2.95.49-2.95,1.1a.37.37,0,0,0,0,.11.72.72,0,0,0,.29.37,6,6,0,0,0,5.29,0,.72.72,0,0,0,.29-.37.37.37,0,0,0,0-.11C172.83,66.39,171.51,65.9,169.89,65.9Zm2.58,1.33a1.58,1.58,0,0,1-.58.32,6.64,6.64,0,0,1-4,0,1.68,1.68,0,0,1-.58-.32.34.34,0,0,1-.13-.23c0-.14.19-.36.71-.56a6.85,6.85,0,0,1,4,0c.52.2.71.42.71.56A.34.34,0,0,1,172.47,67.23Z" transform="translate(-22.59 -18.5)"/><path class="cls-7" d="M172.6,67a.34.34,0,0,1-.13.23h.09l0,.25-.41,3,0,.12h-4.43V70.5l-.42-3,0-.25h.1a.33.33,0,0,1-.14-.23h-.23v.11l.52,3.74h4.84l.51-3.74V67Z" transform="translate(-22.59 -18.5)"/><circle class="cls-5" cx="147.29" cy="10.28" r="5.37"/><path class="cls-7" d="M169.89,31.17a.52.52,0,0,1-.53-.53v-2a.53.53,0,0,1,.53-.53.53.53,0,0,1,.53.53v2A.53.53,0,0,1,169.89,31.17Zm4.49-2.39a4.5,4.5,0,1,0-4.49,4.5h0A4.5,4.5,0,0,0,174.38,28.78Zm-1.06,0a3.44,3.44,0,1,1-3.43-3.43h0A3.43,3.43,0,0,1,173.32,28.78Zm-2.9-1.54h0a.53.53,0,0,0-.53-.53.53.53,0,0,0-.53.53h0a.52.52,0,0,0,.53.53A.53.53,0,0,0,170.42,27.24Z" transform="translate(-22.59 -18.5)"/><circle class="cls-5" cx="5.37" cy="38.12" r="5.37"/><path class="cls-23" d="M25.45,56.23l.08-2.62a.23.23,0,0,1,.23-.21h0a.22.22,0,0,1,.22.21L26,55.32a.18.18,0,0,0,.16.18.18.18,0,0,0,.2-.16h0l.06-1.71a.22.22,0,0,1,.18-.22h.09a.23.23,0,0,1,.18.22L27,55.33a.17.17,0,0,0,.18.17h0a.18.18,0,0,0,.16-.18l.06-1.71a.21.21,0,0,1,.22-.21h0a.23.23,0,0,1,.23.21l.08,2.62a.69.69,0,0,1-.34.62l-.41.25v3a.25.25,0,0,1-.25.24h-.48a.25.25,0,0,1-.25-.24v-3l-.4-.25A.69.69,0,0,1,25.45,56.23Zm3.27,1.64h.57v2.27a.24.24,0,0,0,.24.24H30c.13,0,.24-.11.24-.48V53.57a.17.17,0,0,0-.19-.17.16.16,0,0,0-.09,0h0A3.05,3.05,0,0,0,28.54,56v1.66a.18.18,0,0,0,.18.18Z" transform="translate(-22.59 -18.5)"/><circle class="cls-5" cx="5.74" cy="52.41" r="5.37"/><path class="cls-7" d="M30.86,70.77a.14.14,0,0,1,0,.28H24.77a.14.14,0,0,1,0-.28Zm-6.09-1.1a.14.14,0,0,1,0-.28h6.09a.14.14,0,0,1,0,.28Z" transform="translate(-22.59 -18.5)"/><path class="cls-7" d="M31,69.44l.15.19.25.11a.14.14,0,0,1,.08.16h0l-.05.28.06.35a.15.15,0,0,1-.09.17l-.2.07L31,71a.12.12,0,0,1-.18,0h0l-.15-.2-.25-.1a.16.16,0,0,1-.08-.17h0l.06-.28-.06-.35a.14.14,0,0,1,.09-.16l.2-.07.19-.24a.11.11,0,0,1,.18,0Zm0,.41-.08-.1-.12.14-.06,0-.13,0,.05.26h0v.05l0,.19.17.08s0,0,.06,0l.08.1.12-.14s0,0,.06,0l.13,0-.05-.26h0v0l0-.19L31,69.89Z" transform="translate(-22.59 -18.5)"/><path class="cls-7" d="M24.41,70.33a.09.09,0,0,1-.1-.08.09.09,0,0,1,.07-.11,16.92,16.92,0,0,1,3,0,18.57,18.57,0,0,0,3,0s.09,0,.1.07a.09.09,0,0,1-.07.11,16.92,16.92,0,0,1-3,0A18.2,18.2,0,0,0,24.41,70.33Z" transform="translate(-22.59 -18.5)"/><path class="cls-7" d="M24.41,70a.09.09,0,0,1-.1-.07.09.09,0,0,1,.07-.11,16.64,16.64,0,0,1,3,0,17.43,17.43,0,0,0,3,0,.09.09,0,0,1,.1.07.1.1,0,0,1-.07.12,18,18,0,0,1-3,0A17.43,17.43,0,0,0,24.41,70Z" transform="translate(-22.59 -18.5)"/><path class="cls-7" d="M24.41,70.62a.09.09,0,0,1-.1-.07.1.1,0,0,1,.07-.12,18,18,0,0,1,3,0,17.43,17.43,0,0,0,3,0,.09.09,0,0,1,.1.07.09.09,0,0,1-.07.11,16.64,16.64,0,0,1-3,0A17.43,17.43,0,0,0,24.41,70.62Z" transform="translate(-22.59 -18.5)"/><path class="cls-7" d="M24.82,70.82a.14.14,0,0,1,0,.2.11.11,0,0,1-.18,0l-.15-.19-.25-.11a.15.15,0,0,1-.08-.16h0l.05-.28-.06-.36a.15.15,0,0,1,.09-.16l.2-.07.2-.23a.12.12,0,0,1,.18,0,.15.15,0,0,1,0,.2l-.21.26s0,0-.06,0l-.13,0,0,.26h0s0,0,0,0l0,.19.18.08a.1.1,0,0,1,.05,0l.17.22Z" transform="translate(-22.59 -18.5)"/><path class="cls-7" d="M31.93,68.71a.14.14,0,0,1,.13.14.14.14,0,0,1-.13.15H25.84a.14.14,0,0,1-.13-.15.14.14,0,0,1,.13-.14Zm-6.09-1.09a.14.14,0,0,1-.13-.15.13.13,0,0,1,.13-.14h6.09a.13.13,0,0,1,.13.14.14.14,0,0,1-.13.15Z" transform="translate(-22.59 -18.5)"/><path class="cls-7" d="M32,67.38l.15.19.25.11a.15.15,0,0,1,.08.16h0l-.05.28.06.36a.15.15,0,0,1-.09.16l-.2.07-.2.23a.12.12,0,0,1-.18,0h0l-.15-.19-.25-.11a.15.15,0,0,1-.08-.16h0l.06-.28-.06-.36a.14.14,0,0,1,.09-.16l.19-.07.2-.23a.12.12,0,0,1,.18,0Zm0,.41-.08-.1-.12.14s0,0-.06,0l-.13,0,.05.26h0v0l0,.19.17.08a.13.13,0,0,1,.06,0l.08.1.12-.14.06,0,.13,0,0-.26h0V68.1l0-.19-.18-.08S32,67.81,32,67.79Z" transform="translate(-22.59 -18.5)"/><path class="cls-7" d="M25.48,68.27a.09.09,0,0,1-.1-.07.1.1,0,0,1,.07-.12,18,18,0,0,1,3,0,17.29,17.29,0,0,0,3,0,.1.1,0,0,1,.11.07.09.09,0,0,1-.07.11,16.64,16.64,0,0,1-3,0A17.43,17.43,0,0,0,25.48,68.27Z" transform="translate(-22.59 -18.5)"/><path class="cls-7" d="M25.48,68s-.09,0-.1-.07a.09.09,0,0,1,.07-.11,16.92,16.92,0,0,1,3,0,18.41,18.41,0,0,0,3,0c.05,0,.09,0,.11.07a.09.09,0,0,1-.07.11,16.92,16.92,0,0,1-3,0A18.57,18.57,0,0,0,25.48,68Z" transform="translate(-22.59 -18.5)"/><path class="cls-7" d="M25.48,68.56a.09.09,0,0,1-.1-.07.09.09,0,0,1,.07-.11,16.64,16.64,0,0,1,3,0,17.29,17.29,0,0,0,3,0,.1.1,0,0,1,.11.07.1.1,0,0,1-.07.12,18,18,0,0,1-3,0A17.43,17.43,0,0,0,25.48,68.56Z" transform="translate(-22.59 -18.5)"/><path class="cls-7" d="M25.89,68.76a.14.14,0,0,1,0,.2.11.11,0,0,1-.18,0l-.15-.2-.25-.11a.14.14,0,0,1-.08-.16h0l.05-.28-.06-.35a.15.15,0,0,1,.09-.16l.2-.07.2-.24a.11.11,0,0,1,.18,0,.15.15,0,0,1,0,.2l-.22.26a.1.1,0,0,1-.05,0l-.13.05,0,.25h0s0,0,0,.06l0,.19.18.08a.07.07,0,0,1,.05,0l.17.22Z" transform="translate(-22.59 -18.5)"/><path class="cls-7" d="M28.69,72.33a.15.15,0,0,1,.08-.19.14.14,0,0,1,.16.09.83.83,0,0,1,0,.15c0,.05,0,.1,0,.15A1.9,1.9,0,0,1,28.36,74a2.47,2.47,0,0,1-1.66.5,2.42,2.42,0,0,1-1.65-.5,1.86,1.86,0,0,1-.62-1.47.71.71,0,0,1,0-.14.59.59,0,0,1,0-.13.12.12,0,0,1,.16-.09.15.15,0,0,1,.09.18.29.29,0,0,0,0,.09.28.28,0,0,0,0,.09,1.61,1.61,0,0,0,.52,1.24,2.25,2.25,0,0,0,1.5.44,2.23,2.23,0,0,0,1.5-.44,1.58,1.58,0,0,0,.52-1.24.37.37,0,0,0,0-.11.44.44,0,0,0,0-.1Z" transform="translate(-22.59 -18.5)"/><path class="cls-7" d="M26.69,71.63a6.4,6.4,0,0,1,1.51.15c.44.1.71.27.71.48s-.27.39-.71.49a7,7,0,0,1-1.51.15,6.88,6.88,0,0,1-1.5-.15c-.45-.1-.72-.28-.72-.49s.27-.38.72-.48A6.88,6.88,0,0,1,26.69,71.63Zm1.46.42a7.23,7.23,0,0,0-1.46-.13,7.37,7.37,0,0,0-1.46.13c-.31.08-.51.15-.51.21s.2.13.51.2a7.29,7.29,0,0,0,1.46.14,7.21,7.21,0,0,0,1.46-.14c.31-.07.51-.15.51-.2S28.46,72.13,28.15,72.05Z" transform="translate(-22.59 -18.5)"/><path class="cls-7" d="M25.39,72.53a.08.08,0,0,1,0,.12.07.07,0,0,1-.11,0s-.06,0-.09-.06a.17.17,0,0,1,0-.12c0-.13.18-.24.49-.3a6.54,6.54,0,0,1,2,0c.3.06.49.17.49.3a.17.17,0,0,1-.07.14.4.4,0,0,1-.13.07.08.08,0,0,1-.11,0,.1.1,0,0,1,.05-.13l.08,0a1.26,1.26,0,0,0-.34-.11,6.23,6.23,0,0,0-2,0,.89.89,0,0,0-.34.11l0,0Zm2.65,0Z" transform="translate(-22.59 -18.5)"/><path class="cls-5" d="M166.34,80.51a1,1,0,1,0-1,1,1,1,0,0,0,1-1Z" transform="translate(-22.59 -18.5)"/><path class="cls-5" d="M174.66,80.51a1,1,0,1,0-.95,1,1,1,0,0,0,.95-1Z" transform="translate(-22.59 -18.5)"/><path class="cls-5" d="M165.38,81.92A2.43,2.43,0,0,0,163,84.35v1.22a.41.41,0,1,0,.81,0V84.35a1.61,1.61,0,0,1,.32-1,.14.14,0,0,1,.12-.06.15.15,0,0,1,.15.14v6.79a.4.4,0,0,0,.8,0V86.53a.22.22,0,0,1,.22-.22.22.22,0,0,1,.23.22v3.72a.4.4,0,0,0,.8,0V83.46a.13.13,0,0,1,.06-.11.15.15,0,0,1,.21,0,1.61,1.61,0,0,1,.32,1v1.22a.41.41,0,1,0,.81,0V84.35A2.43,2.43,0,0,0,165.38,81.92Z" transform="translate(-22.59 -18.5)"/><path class="cls-5" d="M173.71,87.17h-.22v3.08a.41.41,0,0,1-.81,0V87.17h-.76a.45.45,0,0,1-.16,0,.4.4,0,0,1-.21-.53l1.35-3.24a.21.21,0,0,0-.11-.28.22.22,0,0,0-.26.08,11.53,11.53,0,0,0-1.18,2.42.4.4,0,0,1-.51.25.42.42,0,0,1-.25-.52,12.6,12.6,0,0,1,1-2.2,2.42,2.42,0,0,1,4.18,0,12.56,12.56,0,0,1,1,2.2.4.4,0,0,1-.24.52.42.42,0,0,1-.52-.25,11.06,11.06,0,0,0-1.18-2.42.22.22,0,0,0-.29-.06.21.21,0,0,0-.08.26l1.36,3.24a.45.45,0,0,1,0,.16.4.4,0,0,1-.4.4h-.76v3.08a.41.41,0,0,1-.81,0V87.17Z" transform="translate(-22.59 -18.5)"/><rect class="cls-5" x="146.41" y="60.91" width="0.37" height="11.24"/><circle class="cls-5" cx="5.61" cy="66.53" r="5.37"/><path class="cls-6" d="M29.33,82.47h2a.29.29,0,0,1,.28.29V84a.28.28,0,0,1-.28.28h-.29v3a.28.28,0,0,1-.28.28H25.65a.28.28,0,0,1-.29-.28v-3h-.28a.28.28,0,0,1-.29-.28V82.76a.29.29,0,0,1,.29-.29m.14.43v1H28v-1Zm3.2,0v1h2.77v-1ZM28,84.32h-2.2v2.85H28Zm.43,2.85V84.32h2.21v2.85Z" transform="translate(-22.59 -18.5)"/><text class="cls-34" transform="translate(22.66 111.33)"><tspan class="cls-28">G</tspan><tspan x="4.46" y="0">RAN</tspan><tspan class="cls-25" x="17.33" y="0">D</tspan><tspan class="cls-38" x="21.5" y="0">E </tspan><tspan class="cls-17" x="26.5" y="0">R</tspan><tspan class="cls-28" x="30.34" y="0">O</tspan><tspan x="34.99" y="0">UE</tspan></text></g></svg>